<svg width="21" height="21" viewBox="0 0 21 21" fill="none" xmlns="http://www.w3.org/2000/svg">
<path d="M10.3545 0.5C8.37668 0.5 6.44329 1.08649 4.79879 2.1853C3.1543 3.28412 1.87258 4.8459 1.1157 6.67317C0.358825 8.50043 0.160792 10.5111 0.546644 12.4509C0.932496 14.3907 1.8849 16.1725 3.28343 17.5711C4.68195 18.9696 6.46378 19.922 8.40359 20.3079C10.3434 20.6937 12.3541 20.4957 14.1813 19.7388C16.0086 18.9819 17.5704 17.7002 18.6692 16.0557C19.768 14.4112 20.3545 12.4778 20.3545 10.5C20.3545 9.18678 20.0958 7.88642 19.5933 6.67317C19.0907 5.45991 18.3541 4.35752 17.4256 3.42893C16.497 2.50035 15.3946 1.76375 14.1813 1.2612C12.9681 0.758658 11.6677 0.5 10.3545 0.5ZM10.3545 18.5C8.77225 18.5 7.22553 18.0308 5.90993 17.1518C4.59434 16.2727 3.56896 15.0233 2.96346 13.5615C2.35796 12.0997 2.19953 10.4911 2.50821 8.93928C2.8169 7.38743 3.57882 5.96197 4.69764 4.84315C5.81646 3.72433 7.24193 2.9624 8.79377 2.65372C10.3456 2.34504 11.9542 2.50346 13.416 3.10896C14.8778 3.71447 16.1272 4.73984 17.0063 6.05544C17.8853 7.37103 18.3545 8.91775 18.3545 10.5C18.3545 12.6217 17.5116 14.6566 16.0114 16.1569C14.5111 17.6571 12.4762 18.5 10.3545 18.5Z" fill="white"/>
<path d="M10.3545 15.5C10.9068 15.5 11.3545 15.0523 11.3545 14.5C11.3545 13.9477 10.9068 13.5 10.3545 13.5C9.80221 13.5 9.35449 13.9477 9.35449 14.5C9.35449 15.0523 9.80221 15.5 10.3545 15.5Z" fill="white"/>
<path d="M10.3545 5.5C10.0893 5.5 9.83492 5.60536 9.64739 5.79289C9.45985 5.98043 9.35449 6.23478 9.35449 6.5V11.5C9.35449 11.7652 9.45985 12.0196 9.64739 12.2071C9.83492 12.3946 10.0893 12.5 10.3545 12.5C10.6197 12.5 10.8741 12.3946 11.0616 12.2071C11.2491 12.0196 11.3545 11.7652 11.3545 11.5V6.5C11.3545 6.23478 11.2491 5.98043 11.0616 5.79289C10.8741 5.60536 10.6197 5.5 10.3545 5.5Z" fill="white"/>
</svg>
