<svg width="39" height="39" viewBox="0 0 39 39" fill="none" xmlns="http://www.w3.org/2000/svg">
<path d="M32.5017 11.13C32.5018 11.996 32.0368 12.7817 31.2992 13.1827L28.5091 14.6903L26.1359 15.9573L21.2131 18.6197C20.684 18.9084 20.1067 19.0528 19.5134 19.0528C18.9201 19.0529 18.3428 18.9086 17.8136 18.62L7.72679 13.1849C6.98912 12.784 6.52404 11.9983 6.52398 11.1324C6.52392 10.2665 6.9889 9.4807 7.72651 9.07974L10.8854 7.37968L13.4029 6.01642L17.8125 3.64274C18.8709 3.06536 20.1537 3.06524 21.2121 3.64243L31.2989 9.07758C32.0366 9.4784 32.5016 10.2641 32.5017 11.13Z" fill="#D7AA47"/>
<path d="M16.1458 20.5125L6.76463 15.831C6.043 15.4622 5.20915 15.5104 4.51965 15.9274C3.83014 16.3444 3.4293 17.0821 3.42936 17.8839L3.42996 26.7516C3.43007 28.291 4.28005 29.67 5.65916 30.3594L15.0403 35.0409C15.361 35.2012 15.7138 35.2814 16.0666 35.2814C16.4835 35.2813 16.9005 35.169 17.2693 34.9285C17.9588 34.5115 18.3596 33.7738 18.3596 32.972L18.359 24.1043C18.3749 22.5809 17.5249 21.2019 16.1458 20.5125Z" fill="#D7AA47"/>
<path d="M35.5972 17.8809L35.5978 26.7486C35.5979 28.272 34.7481 29.6511 33.3691 30.3408L23.9886 35.0401C23.6679 35.2004 23.3151 35.2807 22.9623 35.2807C22.5454 35.2807 22.1285 35.1685 21.7436 34.928C21.0701 34.5112 20.6531 33.7735 20.653 32.9718L20.6524 24.1201C20.6523 22.5807 21.5021 21.2015 22.8811 20.5119L26.3287 18.7958L28.734 17.5929L32.2617 15.8286C32.9832 15.4597 33.8171 15.4917 34.5067 15.9246C35.1802 16.3415 35.5972 17.0791 35.5972 17.8809Z" fill="#D7AA47"/>
<path d="M28.5085 14.6905L26.1353 15.9575L10.8849 7.37987L13.4024 6.01661L28.1236 14.3217C28.284 14.4179 28.4123 14.5462 28.5085 14.6905Z" fill="#D7AA47"/>
<path d="M28.7335 17.5929L28.7337 21.233C28.7338 21.8905 28.1886 22.4357 27.5311 22.4358C26.8737 22.4358 26.3284 21.8907 26.3284 21.2332L26.3282 18.7958L28.7335 17.5929Z" fill="#D7AA47"/>
</svg>
