<svg width="40" height="39" viewBox="0 0 40 39" fill="none" xmlns="http://www.w3.org/2000/svg">
<path d="M18.2551 27.1818C17.9504 27.1818 17.6458 27.0696 17.4052 26.829L14.9997 24.4239C14.5346 23.9589 14.5345 23.1892 14.9995 22.7241C15.4645 22.259 16.2342 22.259 16.6993 22.724L18.2549 24.2793L23.8188 18.7145C24.2838 18.2495 25.0535 18.2494 25.5186 18.7144C25.9836 19.1794 25.9837 19.9491 25.5187 20.4142L19.105 26.8289C18.8805 27.0695 18.5598 27.1817 18.2551 27.1818Z" fill="white"/>
<path d="M23.3687 10.8254L16.9545 10.8259C15.415 10.826 12.5447 10.8262 12.5443 6.41645C12.5439 2.00665 15.4143 2.00643 16.9537 2.00631L23.368 2.00582C24.9074 2.0057 27.7778 2.00548 27.7782 6.41528C27.7783 7.9547 27.7785 10.8251 23.3687 10.8254ZM16.9539 4.41166C15.3664 4.41178 14.9495 4.41181 14.9496 6.41626C14.9498 8.42072 15.3667 8.42069 16.9543 8.42056L23.3685 8.42007C25.373 8.41991 25.3729 8.00299 25.3728 6.41546C25.3726 4.41101 24.9557 4.41104 23.3682 4.41116L16.9539 4.41166Z" fill="white"/>
<path d="M24.9743 36.4824L15.353 36.4831C6.34094 36.4838 4.52857 32.3468 4.52803 25.6599L4.52725 16.0385C4.52665 8.72627 7.17227 5.59912 13.6827 5.26187C14.3402 5.22975 14.9175 5.72681 14.9496 6.4003C14.9817 7.0738 14.4686 7.61905 13.8112 7.65117C9.25709 7.90809 6.93204 9.2713 6.93259 16.0383L6.93337 25.6597C6.93386 31.5929 8.10466 34.0783 15.3528 34.0778L24.9741 34.077C32.2222 34.0765 33.3926 31.5909 33.3922 25.6577L33.3914 16.0363C33.3908 9.26926 31.0655 7.90641 26.5114 7.65019C25.8539 7.61817 25.3408 7.04093 25.3728 6.38346C25.4048 5.726 25.966 5.21282 26.6395 5.24484C33.15 5.59712 35.7961 8.72386 35.7967 16.0201L35.7975 25.6414C35.798 32.3443 33.9864 36.4817 24.9743 36.4824Z" fill="white"/>
</svg>
