<svg width="42" height="59" viewBox="0 0 42 59" fill="none" xmlns="http://www.w3.org/2000/svg">
<path d="M11.721 54.2127C11.793 54.3343 11.7535 54.4933 11.6327 54.5682L9.82938 55.6603L5.20952 45.5783L5.9462 45.1316H5.94853C6.07169 45.0591 6.23204 45.0989 6.30873 45.2205L11.721 54.2127ZM36.0964 41.6521C35.7873 41.1049 35.2691 40.7096 34.6625 40.5576C34.056 40.4033 33.4123 40.5062 32.8848 40.8406L27.9395 43.9533C28.5252 44.7275 28.7738 45.7073 28.6274 46.6709L36.0964 41.6521ZM3.77116 45.7751C3.74095 45.7167 3.68751 45.6769 3.62243 45.6629C3.5806 45.6488 3.53878 45.6418 3.49462 45.6442C3.41097 45.6418 3.3273 45.6629 3.25527 45.705L0.192411 47.5619H0.190088C0.00417697 47.6765 -0.0562425 47.922 0.057624 48.1115L6.25306 58.4156C6.38552 58.6027 6.64114 58.6565 6.83635 58.5349L8.78374 57.4825C8.9743 57.3796 8.93944 57.0685 8.85346 56.8791L3.77116 45.7751ZM41.6273 42.0426H41.625C40.9534 41.1165 39.6659 40.9061 38.7364 41.5655L27.345 49.2199C26.9732 49.5543 26.5177 49.7765 26.0274 49.863C25.6323 49.9074 25.2349 49.8817 24.8491 49.7858L19.7854 47.943L17.7938 48.7685H17.7961C17.4406 48.9158 17.0339 48.7451 16.8875 48.3873C16.7388 48.0295 16.9084 47.6202 17.264 47.4729L19.5042 46.5444C19.6622 46.479 19.8388 46.4743 20.0015 46.5328L25.3139 48.4318C25.3883 48.4598 25.4673 48.4785 25.5486 48.4855C25.6207 48.4832 25.6904 48.4762 25.7624 48.4645C25.9321 48.4364 26.0947 48.371 26.2411 48.2774L26.2528 48.2704L26.4549 48.1347C26.7477 47.8494 26.9708 47.4986 27.101 47.1104C27.4658 46.0791 27.3496 44.6782 25.8112 44.124L17.0201 40.8873C14.9774 40.3588 12.8093 40.7517 11.0756 41.9608C10.3808 42.4893 9.74405 43.095 9.17935 43.7639C8.77732 44.2059 8.35671 44.6689 7.87334 45.1156L12.556 52.8938C12.6512 52.8868 12.7512 52.8845 12.8534 52.8845V52.8868C13.2671 52.8915 13.6807 52.9289 14.0874 53.0014C14.1362 53.0108 14.1873 53.0248 14.2338 53.0435L21.8005 56.1329C23.9083 56.8602 26.2368 56.5468 28.0798 55.2839L41.1055 44.9445L41.1333 44.9234H41.1357C42.0583 44.2616 42.2767 42.9753 41.6237 42.0422L41.6273 42.0426ZM13.0042 17.9661C13.2924 18.0012 13.4388 18.1182 13.627 19.0934C13.6898 19.4231 13.9756 19.6617 14.3102 19.6617C14.6449 19.6617 14.9307 19.4231 14.9934 19.0934C15.1793 18.1158 15.3281 18.0012 15.6139 17.9661C15.9648 17.9241 16.2274 17.6247 16.2274 17.2715C16.2274 16.9161 15.9648 16.6167 15.6139 16.5746C15.3258 16.5419 15.1794 16.4249 14.9934 15.4474C14.9307 15.1176 14.6449 14.8791 14.3102 14.8791C13.9756 14.8791 13.6897 15.1176 13.627 15.4474C13.4411 16.4249 13.2924 16.5395 13.0042 16.5746C12.6533 16.6167 12.3907 16.916 12.3907 17.2715C12.3907 17.6247 12.6534 17.924 13.0042 17.9661ZM17.3336 25.5738L10.2571 24.2641L10.0131 25.5901L17.0848 26.8997L17.3336 25.5738ZM10.4082 34.7481H17.6007V33.4034H10.4082V34.7481ZM19.16 36.149H11.9722V37.4984H19.16V36.149ZM19.16 30.6508H11.9722V32.0002H19.16V30.6508ZM9.0048 29.8744C8.39596 29.8042 8.15889 29.4183 7.90326 28.0876C7.84051 27.7579 7.55235 27.5193 7.22006 27.5193C6.88542 27.5193 6.59956 27.7579 6.53686 28.0876C6.28123 29.4207 6.04187 29.8042 5.43532 29.8744H5.43299C5.08441 29.9165 4.81952 30.2158 4.81952 30.5713C4.81952 30.9244 5.08444 31.2238 5.43299 31.2659C6.04183 31.3361 6.2789 31.7219 6.53453 33.0526L6.53686 33.055C6.5996 33.3847 6.88544 33.6233 7.22006 33.6233C7.55237 33.6233 7.84055 33.3847 7.90326 33.055C8.15889 31.7243 8.39824 31.3384 9.0048 31.2682V31.2659C9.3557 31.2261 9.62297 30.9268 9.62297 30.5713C9.62297 30.2135 9.35573 29.9141 9.0048 29.8744ZM4.93333 22.5032C5.70487 22.5944 6.00233 23.0598 6.31139 24.6735C6.37413 25.0033 6.65997 25.2418 6.99458 25.2418C7.3292 25.2418 7.61508 25.0033 7.67778 24.6735C7.98686 23.0598 8.2843 22.5944 9.05584 22.5032H9.05817C9.40675 22.4611 9.67164 22.1618 9.67164 21.8063C9.67164 21.4532 9.40672 21.1538 9.05817 21.1117C8.2843 21.0205 7.98917 20.5551 7.68011 18.9414H7.67778C7.61504 18.6117 7.3292 18.3731 6.99459 18.3731C6.65997 18.3731 6.37409 18.6117 6.31139 18.9414C6.00231 20.5551 5.70487 21.0205 4.93333 21.1117C4.5801 21.1514 4.31515 21.4508 4.31515 21.8063C4.31515 22.1641 4.58007 22.4635 4.93333 22.5032ZM18.7002 25.8311L18.4585 27.1571C18.3168 27.9172 17.5918 28.42 16.8365 28.2797L14.6055 27.8657C14.4336 28.3148 14.2965 28.7778 14.1988 29.2479H17.8241C18.2122 27.1057 20.0063 25.506 22.1675 25.3774C24.3287 25.2488 26.2993 26.6263 26.9338 28.71C27.5682 30.7938 26.7037 33.0435 24.8423 34.1567C22.9809 35.27 20.6035 34.9565 19.0883 33.399H18.993V34.7484H19.1604C19.9296 34.7484 20.5523 35.3752 20.5523 36.1493V37.4168C21.1752 37.4519 21.8096 37.4636 22.437 37.4636C26.1762 37.4636 30.1269 37.1409 30.7611 32.6904V32.688C31.0748 30.92 30.847 29.0959 30.108 27.4611C29.369 25.8241 28.1536 24.4513 26.6245 23.5252C26.2643 24.0584 25.6671 24.3765 25.0257 24.3765H19.8481C19.2067 24.3765 18.6095 24.0584 18.2493 23.5275C17.9286 23.7123 17.6195 23.9204 17.329 24.152L17.5823 24.1988C17.9471 24.2666 18.2678 24.4771 18.477 24.7834C18.6861 25.0874 18.7676 25.4663 18.7002 25.8311ZM19.1116 19.6293C19.4485 19.379 19.8552 19.2434 20.2712 19.2434H24.6005C24.9607 19.2434 25.314 19.3439 25.6207 19.5357C25.7392 19.4164 25.8577 19.3019 25.9716 19.1919C26.4619 18.7336 26.6548 18.0366 26.4643 17.3888C26.276 16.7434 25.7369 16.2616 25.0792 16.147C23.097 15.7635 22.3115 17.2649 20.0504 16.699C18.175 16.2289 17.6545 17.6344 18.333 18.757V18.7546C18.5515 19.082 18.8141 19.3744 19.1116 19.6293ZM19.3021 22.4286C19.3044 22.7303 19.5461 22.9759 19.8482 22.9759H25.0258C25.321 22.9665 25.5533 22.7233 25.5533 22.4286C25.5533 22.134 25.321 21.8907 25.0258 21.8814H24.9793C25.4581 21.6499 25.2419 20.6443 24.6006 20.6443H20.2712C19.6298 20.6443 19.4137 21.6475 19.8924 21.8814H19.8459H19.8482C19.5485 21.8814 19.3045 22.1246 19.3021 22.4263L19.3021 22.4286ZM23.2295 29.6716C23.0692 29.5383 22.9739 29.3396 22.9739 29.1291C22.9739 29.0051 22.7694 28.8321 22.4371 28.8321V28.8344C22.2302 28.8134 22.0281 28.9046 21.9072 29.0753C22.1512 29.232 22.4138 29.3583 22.688 29.4495C22.8577 29.5126 23.0436 29.5851 23.2295 29.6716ZM20.5524 31.4443V32.0009C20.5524 32.2395 20.492 32.478 20.3734 32.6861C21.5122 33.6052 23.1156 33.6613 24.3171 32.8241C25.5162 31.9869 26.0251 30.4527 25.5673 29.0589C25.1095 27.6627 23.7942 26.7366 22.3348 26.7833C20.8754 26.8278 19.6182 27.8357 19.2487 29.2553C19.9807 29.3021 20.5524 29.9125 20.5524 30.6538V30.8268C20.6547 30.5532 20.9149 30.3731 21.2031 30.3731C21.2612 30.3731 21.3193 30.3801 21.3751 30.3942C20.8638 30.1697 20.5245 29.6669 20.5083 29.1056C20.5431 28.3736 21.0381 27.7445 21.7399 27.5457V27.5013C21.7516 27.1224 22.0606 26.8207 22.4371 26.8207C22.8136 26.8207 23.1226 27.1224 23.1343 27.5013V27.5434C23.8454 27.7445 24.3451 28.3853 24.3683 29.129C24.3683 29.3161 24.2939 29.4938 24.1638 29.6247C24.0336 29.7557 23.8547 29.8305 23.6711 29.8305C23.613 29.8305 23.5549 29.8235 23.4991 29.8095C24.0127 30.034 24.3497 30.5345 24.3683 31.0981C24.3334 31.8301 23.8361 32.4591 23.1343 32.6556V32.7001C23.1227 33.0789 22.8136 33.3806 22.4371 33.3806C22.0606 33.3806 21.7516 33.0789 21.7399 32.7001V32.6556C21.1636 32.4849 20.7151 32.0265 20.5524 31.4419L20.5524 31.4443ZM21.9002 31.0748C21.9002 31.1988 22.1047 31.3695 22.437 31.3695V31.3671C22.6439 31.3882 22.846 31.297 22.9669 31.1263C22.7252 30.9696 22.4626 30.8433 22.1861 30.7521C22.0141 30.6843 21.8282 30.6141 21.6446 30.5276C21.8073 30.6609 21.9002 30.862 21.9002 31.0725L21.9002 31.0748ZM35.5249 26.7764L34.7023 26.9214V32.0103H35.5249V26.7764ZM33.3079 27.1646L32.4853 27.3096V32.0103H33.3079V27.1646ZM25.3414 14.7698C26.5127 14.985 27.4655 15.8456 27.8001 16.9962C28.1371 18.1469 27.8001 19.3887 26.9287 20.2072C26.7521 20.3756 26.6126 20.5182 26.4988 20.6352C26.5661 20.8223 26.608 21.0187 26.6242 21.2152C26.6266 21.2573 26.6289 21.297 26.6312 21.3391L26.6289 21.3415C26.7846 21.5706 26.8892 21.8326 26.9356 22.1062C27.3725 22.326 27.7885 22.5856 28.1789 22.8779V5.32662L23.2732 8.43935V14.8286C23.9494 14.6556 24.6536 14.6368 25.3391 14.7702L25.3414 14.7698ZM30.2541 24.9614C30.0403 24.6761 29.8126 24.4001 29.5732 24.1358V0.599976L40.6535 6.31798L40.6512 24.4566L31.0047 26.1405C30.7816 25.7312 30.5307 25.338 30.2541 24.9614ZM37.6673 10.9292C37.6627 11.1186 37.7324 11.3034 37.8649 11.439C37.995 11.5747 38.1763 11.6518 38.3645 11.6518C38.5527 11.6518 38.734 11.5747 38.8641 11.439C38.9943 11.3034 39.0663 11.1186 39.0617 10.9292V8.47825C39.05 8.09939 38.741 7.79772 38.3645 7.79772C37.988 7.79772 37.679 8.0994 37.6673 8.47825L37.6673 10.9292ZM37.6673 16.2473V16.2496C37.6627 16.439 37.7324 16.6215 37.8649 16.7571C37.995 16.8951 38.1763 16.9699 38.3645 16.9699C38.5527 16.9699 38.734 16.8951 38.8641 16.7571C38.9943 16.6215 39.0663 16.439 39.0617 16.2496V13.7987C39.0663 13.6092 38.9943 13.4268 38.8641 13.2912C38.734 13.1532 38.5527 13.0784 38.3645 13.0784C38.1763 13.0784 37.995 13.1532 37.8649 13.2912C37.7324 13.4268 37.6627 13.6092 37.6673 13.7987V16.2473ZM37.6673 21.5653V21.5677C37.679 21.9465 37.988 22.2459 38.3645 22.2459C38.741 22.2459 39.05 21.9465 39.0617 21.5677V19.1215C39.0663 18.9321 38.9943 18.7473 38.8642 18.6117C38.734 18.476 38.5528 18.3988 38.3645 18.3988C38.1763 18.3988 37.995 18.476 37.8649 18.6117C37.7324 18.7473 37.6627 18.9321 37.6674 19.1215L37.6673 21.5653ZM34.4163 9.74593C34.4116 9.93536 34.4813 10.1178 34.6138 10.2558C34.7439 10.3914 34.9252 10.4686 35.1134 10.4686C35.3017 10.4686 35.4806 10.3914 35.6131 10.2558C35.7432 10.1178 35.8152 9.93535 35.8083 9.74593V7.02373C35.799 6.64487 35.4899 6.34319 35.1134 6.34319C34.7369 6.34319 34.4279 6.64488 34.4162 7.02373L34.4163 9.74593ZM34.4163 15.658C34.4279 16.0369 34.737 16.3362 35.1134 16.3362C35.4899 16.3362 35.799 16.0369 35.8083 15.658V12.9358C35.799 12.557 35.4899 12.2553 35.1134 12.2553C34.737 12.2553 34.4279 12.557 34.4163 12.9358V15.658ZM34.4163 21.5678C34.4279 21.9467 34.737 22.246 35.1134 22.246C35.4899 22.246 35.799 21.9467 35.8083 21.5678V18.8456C35.8153 18.6562 35.7432 18.4738 35.6131 18.3381C35.4806 18.2025 35.3017 18.1253 35.1135 18.1253C34.9252 18.1253 34.744 18.2025 34.6138 18.3381C34.4814 18.4738 34.4117 18.6562 34.4163 18.8456L34.4163 21.5678ZM31.1605 8.55997C31.1721 8.93883 31.4812 9.24051 31.8577 9.24051C32.2341 9.24051 32.5432 8.93882 32.5548 8.55997V5.5665C32.5595 5.37707 32.4874 5.19232 32.3573 5.05668C32.2272 4.92104 32.0459 4.84386 31.8577 4.84386C31.6694 4.84386 31.4882 4.92104 31.358 5.05668C31.2256 5.19232 31.1559 5.37708 31.1605 5.5665L31.1605 8.55997ZM31.1605 15.0636C31.1721 15.4424 31.4812 15.7441 31.8577 15.7441C32.2341 15.7441 32.5432 15.4424 32.5548 15.0636V12.0701C32.5432 11.6913 32.2341 11.3896 31.8577 11.3896C31.4812 11.3896 31.1721 11.6913 31.1605 12.0701V15.0636ZM31.1605 21.5672C31.1721 21.9461 31.4812 22.2454 31.8577 22.2454C32.2341 22.2454 32.5432 21.9461 32.5548 21.5672V18.5737C32.5595 18.3843 32.4874 18.1996 32.3573 18.0639C32.2272 17.9283 32.0459 17.8511 31.8577 17.8511C31.6694 17.8511 31.4882 17.9283 31.358 18.0639C31.2256 18.1996 31.1559 18.3843 31.1605 18.5737L31.1605 21.5672ZM37.7414 32.0072V26.3875L36.9188 26.5301V32.0072L37.7414 32.0072ZM40.6532 32.0072V25.8778L39.1334 26.1444V32.0074L40.6532 32.0072Z" fill="white"/>
</svg>
