<svg width="38" height="38" viewBox="0 0 38 38" fill="none" xmlns="http://www.w3.org/2000/svg">
<path fill-rule="evenodd" clip-rule="evenodd" d="M27.3867 10.4057C26.7376 10.4057 26.1992 9.86735 26.1992 9.21818V7.28018C24.9737 7.23901 23.5345 7.23901 21.8451 7.23901H18.6784C16.9874 7.23901 15.5497 7.23901 14.3242 7.28018V9.21818C14.3242 9.86735 13.7859 10.4057 13.1367 10.4057C12.4876 10.4057 11.9492 9.86735 11.9492 9.21818V7.45118C10.453 7.64593 9.42539 8.02118 8.70339 8.74318C7.75022 9.69635 7.40189 11.1815 7.27364 13.5723H33.2498C33.1216 11.1815 32.7716 9.69635 31.8201 8.74318C31.0981 8.02118 30.0705 7.64593 28.5742 7.45118V9.21818C28.5742 9.86735 28.0359 10.4057 27.3867 10.4057ZM33.3147 15.9473C33.3232 16.7844 33.3263 17.708 33.3242 18.7182V20.3015C33.3242 20.9507 33.8626 21.489 34.5117 21.489C35.1609 21.489 35.6992 20.9507 35.6992 20.3015V18.7182C35.6992 12.4165 35.6992 9.26568 33.4984 7.06485C32.2761 5.84251 30.7592 5.29943 28.5742 5.05718V3.67651C28.5742 3.02735 28.0359 2.48901 27.3867 2.48901C26.7376 2.48901 26.1992 3.02735 26.1992 3.67651V4.9036C24.9389 4.86401 23.4996 4.86401 21.8451 4.86401H18.6784C17.0222 4.86401 15.5846 4.86401 14.3242 4.9036V3.67651C14.3242 3.02735 13.7859 2.48901 13.1367 2.48901C12.4876 2.48901 11.9492 3.02735 11.9492 3.67651V5.05718C9.76422 5.29943 8.24739 5.84251 7.02505 7.06485C4.82422 9.26568 4.82422 12.4323 4.82422 18.7182V21.8848C4.82422 28.1865 4.82422 31.3373 7.02505 33.5382C9.22589 35.739 12.3767 35.739 18.6784 35.739C19.3276 35.739 19.8659 35.2007 19.8659 34.5515C19.8659 33.9023 19.3276 33.364 18.6784 33.364C13.0417 33.364 10.2076 33.364 8.70339 31.8598C7.19922 30.3557 7.19922 27.5215 7.19922 21.8848V18.7182C7.19816 17.7091 7.2008 16.7855 7.20714 15.9473H33.3147ZM28.1784 36.5307C24.0301 36.5307 20.6576 33.1582 20.6576 29.0098C20.6576 24.8615 24.0301 21.489 28.1784 21.489C32.3267 21.489 35.6992 24.8615 35.6992 29.0098C35.6992 33.1582 32.3267 36.5307 28.1784 36.5307ZM28.1784 23.864C25.3442 23.864 23.0326 26.1757 23.0326 29.0098C23.0326 31.844 25.3442 34.1557 28.1784 34.1557C31.0126 34.1557 33.3242 31.844 33.3242 29.0098C33.3242 26.1757 31.0126 23.864 28.1784 23.864ZM28.9226 31.4323C29.1601 31.6698 29.4609 31.7807 29.7617 31.7807C30.0626 31.7807 30.3634 31.6698 30.6009 31.4323C31.0601 30.9732 31.0601 30.2132 30.6009 29.754L29.3659 28.519V25.8432C29.3659 25.194 28.8276 24.6557 28.1784 24.6557C27.5292 24.6557 26.9909 25.194 26.9909 25.8432V29.0098C26.9909 29.3265 27.1176 29.6273 27.3392 29.849L28.9226 31.4323Z" fill="white"/>
</svg>
