<svg width="42" height="55" viewBox="0 0 42 55" fill="none" xmlns="http://www.w3.org/2000/svg">
<path d="M40.8862 46.6711H40.5133V43.5547C41.1522 43.2958 41.6083 42.6688 41.6083 41.9396V39.7994C41.6083 38.9515 41.0002 38.2484 40.2021 38.0963C39.986 37.4883 39.6582 36.9372 39.2402 36.4621H39.5703C40.6155 36.4621 41.4634 35.6142 41.4634 34.569V33.037C41.4634 31.9918 40.6155 31.1367 39.5703 31.1367H35.8197L32.8862 25.607C32.8862 25.5999 32.8791 25.5999 32.8791 25.5951L31.8149 25.721L26.2473 26.4051C26.2283 26.4122 26.2093 26.4122 26.1903 26.4122C26.0311 26.4122 25.8862 26.3291 25.7983 26.2032C25.6962 26.0512 25.6915 25.8611 25.7722 25.702L26.1143 25.0939L26.6535 24.1438L11.5415 24.1414C10.5225 24.1414 9.59142 24.6996 9.10922 25.6046L7.55102 28.55C7.53202 28.5761 7.52014 28.5999 7.50589 28.6331L6.17572 31.1343H2.4774C1.42512 31.1343 0.577156 31.9894 0.577156 33.0346V34.5666C0.577156 35.6118 1.42512 36.4597 2.4774 36.4597H2.75531C2.33725 36.9348 2.00707 37.4859 1.79333 38.0939C0.995227 38.246 0.38715 38.949 0.38715 39.797V41.9372C0.38715 42.6664 0.843208 43.2935 1.48217 43.5523V46.6687H1.10925C0.501177 46.6687 0 47.1699 0 47.778V49.3552C0 49.9704 0.501189 50.4645 1.10925 50.4645H1.99048V52.2198C1.99048 53.6569 3.16151 54.8231 4.60095 54.8231H8.59146C10.0285 54.8231 11.1948 53.6568 11.1948 52.2198V50.4645H30.8052V52.2198C30.8052 53.6569 31.9715 54.8231 33.4085 54.8231H37.399C38.8361 54.8231 40.0095 53.6568 40.0095 52.2198V50.4645H40.8907C41.4988 50.4645 42 49.9704 42 49.3552V47.778C41.9952 47.1723 41.4943 46.6711 40.8862 46.6711ZM39.8672 39.0081C40.3042 39.0081 40.6582 39.3621 40.6582 39.7991V41.9393C40.6582 42.3763 40.3042 42.7302 39.8672 42.7302H33.5894C33.1523 42.7302 32.7984 42.3763 32.7984 41.9393V39.7991C32.7984 39.3621 33.1523 39.0081 33.5894 39.0081H39.8672ZM39.5703 32.084C40.0905 32.084 40.5133 32.5092 40.5133 33.0341V34.5661C40.5133 35.0863 40.0881 35.5092 39.5703 35.5092H38.1451L36.3279 32.0816L39.5703 32.084ZM6.88614 31.8179C6.89326 31.8061 6.89801 31.7989 6.90514 31.7871L8.22819 29.2906H33.7674L36.7437 34.9082C36.3256 34.7871 35.8886 34.7301 35.4325 34.7301L6.56285 34.7324C6.10679 34.7324 5.66971 34.7894 5.25172 34.9106L6.88614 31.8179ZM29.0432 43.7703V46.6705H12.9529V43.7703C12.9529 42.8582 13.694 42.1171 14.6133 42.1171H27.3829C28.3021 42.1171 29.0432 42.8582 29.0432 43.7703ZM2.47758 35.5114C1.95264 35.5114 1.52746 35.0862 1.52746 34.5684V33.0363C1.52746 32.5114 1.95264 32.0862 2.47758 32.0862H5.66998L3.85287 35.5138L2.47758 35.5114ZM1.33743 41.9388V39.7986C1.33743 39.3616 1.69135 39.0077 2.12842 39.0077H8.40621C8.84326 39.0077 9.19719 39.3616 9.19719 39.7986V41.9388C9.19719 42.3758 8.84327 42.7298 8.40621 42.7298L2.12842 42.7321C1.69136 42.7321 1.33743 42.3758 1.33743 41.9388ZM41.0455 49.3567C41.0455 49.4446 40.9695 49.5159 40.8863 49.5159H1.10957C1.02644 49.5159 0.950429 49.447 0.950429 49.3567V47.7795C0.950429 47.6916 1.02644 47.6203 1.10957 47.6203H40.8888C40.9719 47.6203 41.0479 47.6892 41.0479 47.7795L41.0455 49.3567Z" fill="white"/>
<path d="M25.4463 43.9185H16.5483C16.287 43.9185 16.0732 44.1322 16.0732 44.3935C16.0732 44.6548 16.287 44.8686 16.5483 44.8686H25.4463C25.7076 44.8686 25.9214 44.6548 25.9214 44.3935C25.9214 44.1322 25.7076 43.9185 25.4463 43.9185Z" fill="white"/>
<path d="M7.41116 16.8443L15.366 21.7588C16.0881 22.203 17.0193 22.0367 17.5442 21.3788L20.3256 17.8443C20.4206 17.7303 20.5608 17.6662 20.6985 17.6662C20.7864 17.6662 20.8696 17.6852 20.9527 17.7351L28.2685 22.2695C28.4846 22.4025 28.5535 22.6875 28.4324 22.9085L27.7412 24.1365L27.2091 25.0866L27.0642 25.3408L29.1354 25.0866L32.1449 24.7184L35.1473 24.3502L31.7839 16.9323L30.5226 19.1746C30.4585 19.2886 30.3516 19.3718 30.2257 19.4026C30.0998 19.4335 29.9668 19.4145 29.8576 19.3527L21.0781 13.9062C20.3632 13.4691 19.4273 13.633 18.9 14.2981L16.1138 17.8326C15.9689 18.0155 15.7029 18.0677 15.4939 17.9395L9.15406 14.025C8.79301 13.7969 8.36307 13.7209 7.94502 13.8088C7.49609 13.9038 7.11603 14.1699 6.87377 14.5618C6.39158 15.3433 6.63206 16.3621 7.41116 16.8443Z" fill="white"/>
<path d="M13.9362 12.0752C17.1595 12.0752 19.7819 9.44575 19.7819 6.22246C19.7819 2.99916 17.1595 0.376831 13.9362 0.376831C10.7129 0.376831 8.0835 2.99916 8.0835 6.22246C8.0835 9.44575 10.7106 12.0752 13.9362 12.0752ZM14.0621 6.71652H13.808C12.9908 6.71652 12.3187 6.05141 12.3187 5.22722C12.3187 4.49801 12.8056 3.90891 13.4588 3.75214L13.4612 3.07517C13.4612 2.81627 13.6702 2.60011 13.9362 2.60011C14.1952 2.60011 14.4113 2.81627 14.4113 3.07517V3.7094H15.0692C15.3353 3.7094 15.5443 3.91842 15.5443 4.18446C15.5443 4.44336 15.3353 4.65952 15.0692 4.65952H13.808C13.5111 4.65952 13.2688 4.89942 13.2688 5.19871C13.2688 5.52888 13.5087 5.76878 13.808 5.76878H14.0621C14.8793 5.76878 15.5443 6.4339 15.5443 7.25809C15.5443 7.95403 15.0621 8.53839 14.4113 8.69515V9.37213C14.4113 9.63816 14.1951 9.84719 13.9362 9.84719C13.6702 9.84719 13.4612 9.63816 13.4612 9.37213V8.74265H12.7961C12.5371 8.74265 12.321 8.52649 12.321 8.26758C12.321 8.00155 12.5371 7.79252 12.7961 7.79252H14.0621C14.3542 7.79252 14.5941 7.55262 14.5941 7.25333C14.5941 6.95642 14.3543 6.71652 14.0621 6.71652Z" fill="white"/>
</svg>
