<svg width="25" height="24" viewBox="0 0 25 24" fill="none" xmlns="http://www.w3.org/2000/svg">
<g clip-path="url(#clip0_380_1197)">
<path d="M21.7084 6.25V11.35C21.7084 12.62 21.2884 13.69 20.5384 14.43C19.7984 15.18 18.7284 15.6 17.4584 15.6V17.41C17.4584 18.09 16.6984 18.5 16.1384 18.12L15.1684 17.48C15.2584 17.17 15.2984 16.83 15.2984 16.47V12.4C15.2984 10.36 13.9384 9 11.8984 9H5.10837C4.96837 9 4.83837 9.01 4.70837 9.02V6.25C4.70837 3.7 6.40837 2 8.95837 2H17.4584C20.0084 2 21.7084 3.7 21.7084 6.25Z" stroke="#676D75" stroke-width="1.5" stroke-miterlimit="10" stroke-linecap="round" stroke-linejoin="round"/>
<path d="M15.2984 12.4V16.47C15.2984 16.83 15.2584 17.17 15.1684 17.48C14.7984 18.95 13.5784 19.87 11.8984 19.87H9.17837L6.15837 21.88C6.05714 21.9493 5.93884 21.9895 5.81634 21.9963C5.69384 22.003 5.57183 21.9761 5.46358 21.9184C5.35533 21.8606 5.26498 21.7743 5.20235 21.6688C5.13973 21.5633 5.10722 21.4427 5.10837 21.32V19.87C4.08837 19.87 3.23837 19.53 2.64837 18.94C2.04837 18.34 1.70837 17.49 1.70837 16.47V12.4C1.70837 10.5 2.88837 9.19 4.70837 9.02C4.83837 9.01 4.96837 9 5.10837 9H11.8984C13.9384 9 15.2984 10.36 15.2984 12.4Z" stroke="#676D75" stroke-width="1.5" stroke-miterlimit="10" stroke-linecap="round" stroke-linejoin="round"/>
</g>
<defs>
<clipPath id="clip0_380_1197">
<rect width="24" height="24" fill="white" transform="translate(0.5)"/>
</clipPath>
</defs>
</svg>
