<svg width="39" height="38" viewBox="0 0 39 38" fill="none" xmlns="http://www.w3.org/2000/svg">
<path d="M10.4176 33.25C9.52464 33.25 8.77362 32.9455 8.16456 32.3364C7.5555 31.7274 7.25098 30.9763 7.25098 30.0833V28.2562C7.25098 27.5532 7.50167 26.9515 8.00306 26.4512C8.50445 25.9508 9.10612 25.7001 9.80806 25.6991H12.001V7.30867C12.001 6.60461 12.2517 6.00242 12.7531 5.50208C13.2544 5.00175 13.8561 4.75106 14.5581 4.75H30.0272C30.7302 4.75 31.3319 5.00069 31.8322 5.50208C32.3326 6.00347 32.5833 6.60514 32.5843 7.30708V30.0833C32.5843 30.9763 32.2798 31.7274 31.6707 32.3364C31.0617 32.9455 30.3106 33.25 29.4176 33.25H10.4176ZM29.4176 31.6667C29.8663 31.6667 30.2426 31.5147 30.5466 31.2107C30.8506 30.9067 31.002 30.5309 31.001 30.0833V7.30867C31.001 7.02367 30.9097 6.78986 30.7271 6.60725C30.5444 6.42464 30.3112 6.33333 30.0272 6.33333H14.5581C14.2741 6.33333 14.0408 6.42464 13.8582 6.60725C13.6756 6.78986 13.5843 7.02367 13.5843 7.30867V25.6975H25.2772C25.9802 25.6975 26.5819 25.9477 27.0822 26.448C27.5826 26.9483 27.8333 27.5511 27.8343 28.2562V30.0833C27.8343 30.5319 27.9863 30.9082 28.2903 31.2122C28.5943 31.5162 28.9701 31.6677 29.4176 31.6667ZM16.5689 13.2763C16.3441 13.2763 16.1556 13.2003 16.0036 13.0483C15.8527 12.8963 15.7772 12.7078 15.7772 12.483C15.7772 12.2582 15.8527 12.0703 16.0036 11.9193C16.1546 11.7684 16.343 11.6929 16.5689 11.6929H28.0164C28.2412 11.6929 28.4296 11.7689 28.5816 11.9209C28.7336 12.0729 28.8091 12.2608 28.8081 12.4846C28.807 12.7084 28.7315 12.8963 28.5816 13.0483C28.4318 13.2003 28.2433 13.2763 28.0164 13.2763H16.5689ZM16.5689 17.6605C16.3441 17.6605 16.1556 17.5845 16.0036 17.4325C15.8527 17.2805 15.7772 17.0921 15.7772 16.8673C15.7772 16.6424 15.8527 16.4545 16.0036 16.3036C16.1546 16.1526 16.343 16.0772 16.5689 16.0772H28.0164C28.2412 16.0772 28.4296 16.1532 28.5816 16.3052C28.7336 16.4572 28.8091 16.6456 28.8081 16.8704C28.807 17.0953 28.7315 17.2831 28.5816 17.4341C28.4318 17.585 28.2433 17.6605 28.0164 17.6605H16.5689Z" fill="#E6E6E6"/>
</svg>
