<svg width="20" height="21" viewBox="0 0 20 21" fill="none" xmlns="http://www.w3.org/2000/svg">
<path fill-rule="evenodd" clip-rule="evenodd" d="M13.0641 8.55356C13.0641 9.08153 12.93 9.54255 12.6623 9.93626C12.4416 10.2671 12.0716 10.6257 11.5515 11.0118C11.2521 11.2168 11.055 11.4096 10.9606 11.5908C10.8419 11.8115 10.7833 12.1421 10.7833 12.5834H9.11664C9.11664 11.914 9.18789 11.4256 9.32969 11.1184C9.49492 10.7479 9.8534 10.3737 10.4047 9.99559C10.665 9.79852 10.8541 9.59782 10.9723 9.39305C11.1139 9.16446 11.1851 8.90465 11.1851 8.61313C11.1851 8.14833 11.0469 7.80196 10.7713 7.57313C10.5511 7.40798 10.2829 7.32528 9.96781 7.32528C9.45578 7.32528 9.08539 7.49477 8.85703 7.83344C8.69156 8.0854 8.60859 8.4084 8.60859 8.80219V8.81407H6.83668C6.83668 7.78196 7.16324 7.00227 7.81676 6.4743C8.36832 6.03356 9.05012 5.81259 9.86129 5.81259C10.5707 5.81259 11.193 5.95059 11.7284 6.22618C12.6191 6.68333 13.0641 7.45946 13.0641 8.55356ZM18.3337 10.5C18.3337 15.1024 14.6027 18.8334 10.0003 18.8334C5.39797 18.8334 1.66699 15.1024 1.66699 10.5C1.66699 5.89762 5.39797 2.16669 10.0003 2.16669C14.6027 2.16669 18.3337 5.89762 18.3337 10.5M16.667 10.5C16.667 6.82395 13.6763 3.83333 10.0003 3.83333C6.3243 3.83333 3.33367 6.82399 3.33367 10.5C3.33367 14.176 6.3243 17.1667 10.0003 17.1667C13.6763 17.1667 16.667 14.176 16.667 10.5ZM10.0003 13.2083C9.42496 13.2083 8.95859 13.6747 8.95859 14.25C8.95859 14.8253 9.425 15.2916 10.0003 15.2916C10.5755 15.2916 11.042 14.8253 11.042 14.25C11.042 13.6747 10.5755 13.2083 10.0003 13.2083Z" fill="#E6E6E6"/>
</svg>
