<svg width="118" height="118" viewBox="0 0 118 118" fill="none" xmlns="http://www.w3.org/2000/svg">
<path fill-rule="evenodd" clip-rule="evenodd" d="M44.9558 7.66821C43.5352 8.87881 42.8249 9.48416 42.0663 9.9926C40.3273 11.1581 38.3744 11.967 36.3207 12.3725C35.4247 12.5494 34.4944 12.6236 32.6339 12.7721C27.9591 13.1452 25.6218 13.3317 23.6717 14.0205C19.1614 15.6136 15.6137 19.1613 14.0206 23.6716C13.3318 25.6216 13.1453 27.959 12.7722 32.6338C12.6238 34.4943 12.5495 35.4246 12.3726 36.3205C11.9672 38.3743 11.1582 40.3272 9.99272 42.0661C9.48427 42.8247 8.87896 43.535 7.66833 44.9556C4.62662 48.5249 3.10569 50.3096 2.21384 52.1756C0.151051 56.4913 0.151051 61.5086 2.21384 65.8243C3.1057 67.6903 4.62657 69.4749 7.66833 73.0443C8.87882 74.4647 9.4843 75.1752 9.99272 75.9338C11.1582 77.6727 11.9672 79.6256 12.3726 81.6794C12.5495 82.5753 12.6238 83.5056 12.7722 85.3661C13.1453 90.0409 13.3318 92.3783 14.0206 94.3283C15.6137 98.8386 19.1614 102.386 23.6717 103.979C25.6218 104.668 27.9591 104.855 32.6339 105.228C34.4944 105.376 35.4247 105.451 36.3207 105.627C38.3744 106.033 40.3273 106.842 42.0663 108.007C42.8249 108.516 43.5352 109.121 44.9558 110.332C48.5251 113.373 50.3098 114.894 52.1757 115.786C56.4915 117.849 61.5087 117.849 65.8245 115.786C67.6904 114.894 69.4751 113.373 73.0444 110.332C74.465 109.121 75.1753 108.516 75.9339 108.007C77.6728 106.842 79.6257 106.033 81.6795 105.627C82.5754 105.451 83.5057 105.376 85.3663 105.228C90.041 104.855 92.3784 104.668 94.3285 103.979C98.8388 102.386 102.386 98.8387 103.98 94.3283C104.668 92.3783 104.855 90.0409 105.228 85.3661C105.376 83.5056 105.451 82.5753 105.628 81.6794C106.033 79.6256 106.842 77.6727 108.007 75.9338C108.516 75.1752 109.121 74.4649 110.332 73.0443C113.374 69.4749 114.894 67.6903 115.786 65.8243C117.849 61.5086 117.849 56.4913 115.786 52.1756C114.894 50.3096 113.374 48.525 110.332 44.9556C109.121 43.535 108.516 42.8247 108.007 42.0661C106.842 40.3272 106.033 38.3743 105.628 36.3205C105.451 35.4246 105.376 34.4943 105.228 32.6338C104.855 27.959 104.668 25.6216 103.98 23.6716C102.386 19.1613 98.8388 15.6136 94.3285 14.0205C92.3784 13.3317 90.041 13.1452 85.3663 12.7721C83.5057 12.6236 82.5754 12.5494 81.6795 12.3725C79.6257 11.967 77.6728 11.1581 75.9339 9.9926C75.1753 9.48415 74.465 8.87884 73.0444 7.66821C69.4751 4.62645 67.6904 3.10557 65.8245 2.21372C61.5087 0.150929 56.4915 0.150929 52.1757 2.21372C50.3098 3.10557 48.5251 4.62649 44.9558 7.66821ZM84.5121 46.5349C86.3661 44.6809 86.3661 41.6749 84.5121 39.8209C82.6581 37.9669 79.6521 37.9669 77.7981 39.8209L49.505 68.114L40.2019 58.811C38.3479 56.957 35.3419 56.957 33.4879 58.811C31.6339 60.665 31.6339 63.671 33.4879 65.525L46.148 78.185C48.002 80.039 51.0079 80.039 52.862 78.185L84.5121 46.5349Z" fill="white"/>
</svg>
