<svg width="20" height="19" viewBox="0 0 20 19" fill="none" xmlns="http://www.w3.org/2000/svg">
<path d="M4.47949 4.8125H3.43783C2.88529 4.8125 2.35539 5.03199 1.96469 5.42269C1.57399 5.81339 1.35449 6.3433 1.35449 6.89583V16.2708C1.35449 16.8234 1.57399 17.3533 1.96469 17.744C2.35539 18.1347 2.88529 18.3542 3.43783 18.3542H12.8128C13.3654 18.3542 13.8953 18.1347 14.286 17.744C14.6767 17.3533 14.8962 16.8234 14.8962 16.2708V15.2292" stroke="#E6E6E6" stroke-linecap="round" stroke-linejoin="round"/>
<path d="M13.8547 2.7292L16.9797 5.8542M18.4224 4.38024C18.8326 3.96998 19.0631 3.41355 19.0631 2.83336C19.0631 2.25317 18.8326 1.69675 18.4224 1.28649C18.0121 0.876232 17.4557 0.645752 16.8755 0.645752C16.2953 0.645752 15.7389 0.876232 15.3286 1.28649L6.56299 10.0209V13.1459H9.68799L18.4224 4.38024Z" stroke="#E6E6E6" stroke-linecap="round" stroke-linejoin="round"/>
</svg>
