<svg width="27" height="27" viewBox="0 0 27 27" fill="none" xmlns="http://www.w3.org/2000/svg">
<path d="M17.5381 2.27905H8.8978C4.57767 2.27905 2.4176 4.43912 2.4176 8.75925V22.7997C2.4176 23.3937 2.90362 23.8797 3.49764 23.8797H17.5381C21.8582 23.8797 24.0183 21.7196 24.0183 17.3995V8.75925C24.0183 4.43912 21.8582 2.27905 17.5381 2.27905Z" fill="#D7AA47"/>
<path d="M18.1321 8.17588C16.7713 6.81504 15.4537 6.78264 14.0604 8.17588L13.2072 9.02911C13.1316 9.10471 13.11 9.21272 13.1316 9.30992C13.6608 11.1676 15.1404 12.6472 16.9981 13.1764C17.0197 13.1872 17.0521 13.1872 17.0845 13.1872C17.1601 13.1872 17.2357 13.1548 17.2897 13.1008L18.1321 12.2584C18.8233 11.5672 19.1582 10.9084 19.1582 10.2387C19.1582 9.53673 18.8233 8.8671 18.1321 8.17588Z" fill="white"/>
<path d="M15.7451 13.8029C15.5399 13.7057 15.3454 13.6085 15.1618 13.4897C15.0106 13.4033 14.8595 13.3061 14.719 13.198C14.6002 13.1224 14.4598 13.0144 14.3194 12.8956C14.2978 12.8848 14.2546 12.8524 14.2006 12.7876C13.9738 12.5932 13.7146 12.334 13.477 12.064C13.4554 12.0532 13.423 11.9992 13.3798 11.9344C13.3042 11.848 13.1962 11.7076 13.0882 11.5564C13.0018 11.4484 12.9046 11.2972 12.8182 11.146C12.7102 10.9624 12.6022 10.768 12.5158 10.5736C12.4186 10.3576 12.343 10.1632 12.2674 9.96875L8.19564 14.0405C7.92563 14.3105 7.67722 14.8073 7.62322 15.1745L7.31 17.421C7.2344 17.8962 7.37479 18.339 7.6664 18.6414C7.91481 18.8898 8.26044 19.0194 8.63846 19.0194C8.72486 19.0194 8.80044 19.0086 8.88684 18.9978L11.1333 18.6846C11.5005 18.6306 11.9973 18.3822 12.2674 18.1122L16.3391 14.0405C16.1447 13.9649 15.9503 13.8893 15.7451 13.8029Z" fill="white"/>
</svg>
