<svg width="36" height="35" viewBox="0 0 36 35" fill="none" xmlns="http://www.w3.org/2000/svg">
<path d="M18.4176 18.2292C17.0639 18.2292 15.7657 18.7669 14.8085 19.7241C13.8512 20.6813 13.3135 21.9796 13.3135 23.3333C13.3135 24.687 13.8512 25.9853 14.8085 26.9425C15.7657 27.8997 17.0639 28.4375 18.4176 28.4375C19.7714 28.4375 21.0696 27.8997 22.0268 26.9425C22.9841 25.9853 23.5218 24.687 23.5218 23.3333C23.5218 21.9796 22.9841 20.6813 22.0268 19.7241C21.0696 18.7669 19.7714 18.2292 18.4176 18.2292ZM16.2301 23.3333C16.2301 22.7532 16.4606 22.1968 16.8708 21.7865C17.2811 21.3763 17.8375 21.1458 18.4176 21.1458C18.9978 21.1458 19.5542 21.3763 19.9644 21.7865C20.3747 22.1968 20.6051 22.7532 20.6051 23.3333C20.6051 23.9135 20.3747 24.4699 19.9644 24.8801C19.5542 25.2904 18.9978 25.5208 18.4176 25.5208C17.8375 25.5208 17.2811 25.2904 16.8708 24.8801C16.4606 24.4699 16.2301 23.9135 16.2301 23.3333Z" fill="white"/>
<path d="M26.4767 7.46085L21.8407 0.96106L4.79422 14.579L3.84922 14.5688V14.5834H3.10547V32.0834H33.7305V14.5834H32.3276L29.5363 6.41814L26.4767 7.46085ZM29.2461 14.5834H14.6219L25.5142 10.8704L27.7338 10.1602L29.2461 14.5834ZM23.5951 8.44377L12.3513 12.2763L21.2559 5.16252L23.5951 8.44377ZM6.02214 26.4965V20.1673C6.63781 19.95 7.19704 19.5977 7.65883 19.1362C8.12062 18.6746 8.47326 18.1156 8.69089 17.5H28.1451C28.3625 18.1158 28.715 18.6752 29.1768 19.137C29.6386 19.5988 30.198 19.9513 30.8138 20.1688V26.4979C30.198 26.7154 29.6386 27.0679 29.1768 27.5297C28.715 27.9915 28.3625 28.5509 28.1451 29.1667H8.6938C8.47532 28.5508 8.12208 27.9915 7.65987 27.5295C7.19766 27.0676 6.63814 26.7146 6.02214 26.4965Z" fill="white"/>
</svg>
