<svg width="28" height="22" viewBox="0 0 28 22" fill="none" xmlns="http://www.w3.org/2000/svg">
<path fill-rule="evenodd" clip-rule="evenodd" d="M26.1625 3.447L15.1147 12.596C14.8008 12.8561 14.4059 12.9984 13.9983 12.9984C13.5906 12.9984 13.1957 12.8561 12.8818 12.596L1.83925 3.447C1.78 3.62535 1.74986 3.81207 1.75 4V18C1.75 18.4641 1.93437 18.9092 2.26256 19.2374C2.59075 19.5656 3.03587 19.75 3.5 19.75H24.5C24.9641 19.75 25.4092 19.5656 25.7374 19.2374C26.0656 18.9092 26.25 18.4641 26.25 18V4C26.2507 3.81217 26.2212 3.62544 26.1625 3.447ZM3.5 0.5H24.5C25.4283 0.5 26.3185 0.868749 26.9749 1.52513C27.6313 2.1815 28 3.07174 28 4V18C28 18.9283 27.6313 19.8185 26.9749 20.4749C26.3185 21.1313 25.4283 21.5 24.5 21.5H3.5C2.57174 21.5 1.6815 21.1313 1.02513 20.4749C0.368749 19.8185 0 18.9283 0 18V4C0 3.07174 0.368749 2.1815 1.02513 1.52513C1.6815 0.868749 2.57174 0.5 3.5 0.5ZM3.1325 2.25L12.8905 10.3053C13.203 10.5634 13.5955 10.705 14.0008 10.706C14.4062 10.7069 14.7993 10.5672 15.113 10.3105L24.969 2.25H3.1325Z" fill="#E6E6E6"/>
</svg>
