<svg width="42" height="48" viewBox="0 0 42 48" fill="none" xmlns="http://www.w3.org/2000/svg">
<path fill-rule="evenodd" clip-rule="evenodd" d="M4.61978 31.7523L0.339556 33.7987C0.0438991 33.9397 -0.0817032 34.2981 0.0554946 34.5938L5.66728 46.753C5.80641 47.0546 6.15231 47.1858 6.45572 47.0409L10.7359 44.9944C11.0316 44.8534 11.1572 44.4951 11.02 44.1994L5.40822 32.0402C5.26908 31.7386 4.92125 31.6074 4.61978 31.7523ZM36.2123 8.51677V2.71841H32.0345V4.79812L36.2123 8.51677ZM36.4905 0.0999756C37.0973 0.0999756 37.4084 0.922454 37.0219 1.44143C36.8944 1.6118 36.705 1.72147 36.4905 1.72147H31.6267C31.0199 1.72147 30.7088 0.898987 31.0953 0.380012C31.2229 0.209641 31.4122 0.0999756 31.6248 0.0999756H36.4905ZM24.7396 13.0503H24.7667C26.1232 13.015 27.3677 13.532 28.2875 14.4035C30.2933 16.3011 30.4034 19.4929 28.531 21.5258C26.6585 23.5586 23.5089 23.6702 21.5029 21.7726C19.499 19.8749 19.3889 16.6811 21.2594 14.6502C22.129 13.7083 23.3522 13.1012 24.7261 13.0522L24.7396 13.0503ZM24.8942 18.7017L24.9097 18.7037C25.3058 18.7057 25.6556 18.8232 25.901 19.0131C26.3358 19.3499 26.3319 19.8062 25.8991 20.1372C25.0372 20.7991 23.5705 20.3134 23.5628 19.5712C23.5608 19.2325 23.2864 18.9583 22.9502 18.9622C22.6159 18.9642 22.3453 19.2423 22.3493 19.583C22.3589 20.6347 23.2439 21.3945 24.243 21.6138L24.2391 21.9937C24.2352 22.3325 24.5039 22.6106 24.8381 22.6165C25.1724 22.6204 25.4469 22.3482 25.4526 22.0094L25.4565 21.6354C27.472 21.2613 28.1039 19.1738 26.6372 18.0379C26.1889 17.6913 25.5783 17.4759 24.9096 17.4759C23.8101 17.4779 23.1222 16.6319 23.8893 16.0444C24.7512 15.3825 26.2178 15.8681 26.2256 16.6103C26.2275 16.9491 26.5019 17.2233 26.8382 17.2193C27.1725 17.2174 27.443 16.9393 27.4391 16.5985C27.4295 15.5469 26.5444 14.7871 25.5454 14.5678L25.5493 14.1878C25.5531 13.8491 25.2845 13.569 24.9502 13.5651C24.616 13.5612 24.3396 13.8334 24.3357 14.1721L24.3319 14.5462C22.3164 14.9202 21.6845 17.0078 23.1512 18.1436C23.5995 18.4902 24.2101 18.7057 24.8788 18.7057L24.8942 18.7017ZM25.387 11.8691C25.387 12.1453 25.1667 12.3666 24.8961 12.3666C24.6237 12.3666 24.4053 12.1433 24.4053 11.8691V10.1713C24.4053 9.89518 24.6256 9.67389 24.8961 9.67389C25.1686 9.67389 25.387 9.89713 25.387 10.1713V11.8691ZM28.9484 13.0461V11.3483C28.9484 11.0721 28.7281 10.8509 28.4575 10.8509C28.1851 10.8509 27.9667 11.0741 27.9667 11.3483V13.0461C27.9667 13.3222 28.187 13.5435 28.4575 13.5435C28.7281 13.5435 28.9484 13.3203 28.9484 13.0461ZM21.7832 13.0461V11.3483C21.7832 11.0721 21.563 10.8509 21.2924 10.8509C21.02 10.8509 20.8016 11.0741 20.8016 11.3483V13.0461C20.8016 13.3222 21.0219 13.5435 21.2924 13.5435C21.563 13.5435 21.7832 13.3203 21.7832 13.0461ZM13.051 15.0925C10.1331 12.1355 5.40252 12.1355 2.48285 15.0925C-0.435036 18.0496 -0.435036 22.8436 2.48285 25.8024C5.40074 28.7594 10.1313 28.7594 13.051 25.8024C15.9669 22.8434 15.9669 18.0494 13.051 15.0925ZM14.4171 15.1552L24.4985 6.18043C24.7265 5.97873 25.0646 5.97873 25.2908 6.18043L35.896 15.6214C36.0757 15.782 36.1626 15.9798 36.1626 16.2246V29.5058C35.5423 30.0365 34.7539 30.5946 34.0138 31.092C34.1722 30.6279 34.1954 30.1598 34.0389 29.6957C33.434 27.9234 31.1654 28.7871 29.1074 29.4666V26.1923C29.1074 25.5617 28.5973 25.0447 27.975 25.0447H21.8146C21.1905 25.0447 20.6822 25.5617 20.6822 26.1923V28.9888C20.4619 28.8967 20.2764 28.8223 20.1238 28.7753C17.7025 27.7472 15.5962 27.7727 13.625 28.3778V26.6231C16.7555 23.5721 17.1012 18.6154 14.4171 15.1552ZM10.6567 12.392L23.7967 0.695052C24.4247 0.134968 25.3639 0.134968 25.9919 0.695052L40.564 13.6689C41.163 14.2035 41.2229 15.1435 40.6954 15.7506C40.394 16.0992 40.0964 16.3204 39.6056 16.3518C39.2191 16.3772 38.8403 16.248 38.5486 15.9895L25.3368 4.22983C25.0779 3.99875 24.705 3.99875 24.446 4.22983L13.4045 14.0604C12.5948 13.326 11.6616 12.7622 10.6567 12.392ZM10.935 16.5319C11.1263 16.338 11.4374 16.338 11.6306 16.5319C11.8219 16.7258 11.8219 17.041 11.6306 17.2369L4.59855 24.3612C4.40724 24.5551 4.09614 24.5551 3.90291 24.3612C3.71161 24.1674 3.71161 23.8521 3.90291 23.6563L10.935 16.5319ZM32.46 33.199C32.9199 32.9895 34.2919 32.0965 34.7402 31.793C36.7692 30.4202 37.4475 29.7681 39.0398 27.8548C40.062 26.6269 40.8929 25.6282 41.5055 25.9278C41.548 25.9552 41.5905 25.9885 41.6311 26.0277C42.0157 26.388 42.0756 27.0753 41.921 27.8939C41.6273 29.441 40.6011 31.2877 39.4939 32.5058C37.5731 34.6247 35.0823 36.4714 32.6068 37.8655C29.8203 39.436 27.0707 40.4269 25.1998 40.5836C25.1612 40.5875 25.1225 40.5954 25.0858 40.6052C24.2761 40.8245 15.5882 40.6737 13.9359 41.0321C13.25 41.1809 11.8779 41.8213 11.1746 42.1894L7.06824 33.2909C7.24795 33.1655 7.48757 32.9991 7.72331 32.8326C11.5282 30.1693 15.0739 27.684 19.7854 29.7032C19.8028 29.7091 19.8182 29.7169 19.8356 29.7228C20.168 29.8305 20.6588 30.0675 21.0221 30.2026C22.5351 30.8136 24.9796 31.6322 27.6871 30.9193C28.4562 30.7294 28.9373 30.5688 29.6793 30.324C31.3006 29.7874 32.8601 29.2724 33.1151 30.0185C33.3335 30.6589 32.8253 31.4266 32.203 32.0649C31.0784 33.2184 29.3295 34.2132 28.3498 34.5892C24.9005 35.5136 23.1496 35.2766 21.716 35.0808C20.914 34.9711 20.2049 34.8751 19.3566 34.975C19.088 35.0064 18.8947 35.2531 18.9237 35.5253C18.9546 35.7975 19.1981 35.9934 19.4667 35.962C20.1991 35.8739 20.8503 35.964 21.5827 36.0639C23.1054 36.2714 24.9663 36.5241 28.6147 35.5429C28.6302 35.539 28.6456 35.5331 28.6611 35.5273C29.5944 35.1748 31.2002 34.2857 32.4157 33.2145C32.4312 33.2125 32.4465 33.2069 32.46 33.199ZM10.1949 21.279C11.0819 21.279 11.8007 22.0075 11.8007 22.9063C11.8007 23.8052 11.0819 24.5337 10.1949 24.5337C9.30792 24.5337 8.58908 23.8052 8.58908 22.9063C8.58908 22.0075 9.30792 21.279 10.1949 21.279ZM5.33881 16.3597C6.22579 16.3597 6.94462 17.0882 6.94462 17.9871C6.94462 18.8859 6.22579 19.6144 5.33881 19.6144C4.45182 19.6144 3.73299 18.8859 3.73299 17.9871C3.73299 17.0882 4.45182 16.3597 5.33881 16.3597Z" fill="white"/>
</svg>
