<svg width="23" height="27" viewBox="0 0 23 27" fill="none" xmlns="http://www.w3.org/2000/svg">
<path d="M20.4444 19.2857V12.6C19.8056 12.7286 19.1667 12.8571 18.5278 12.8571H17.8889V20.5714H5.11111V11.5714C5.11111 7.97143 7.92222 5.14286 11.5 5.14286C11.6278 3.47143 12.3944 2.05714 13.4167 0.9C13.0333 0.385714 12.2667 0 11.5 0C10.0944 0 8.94444 1.15714 8.94444 2.57143V2.95714C5.11111 4.11429 2.55556 7.58571 2.55556 11.5714V19.2857L0 21.8571V23.1429H23V21.8571L20.4444 19.2857ZM8.94444 24.4286C8.94444 25.8429 10.0944 27 11.5 27C12.9056 27 14.0556 25.8429 14.0556 24.4286H8.94444ZM23 5.78571C23 8.22857 20.9556 10.2857 18.5278 10.2857C16.1 10.2857 14.0556 8.22857 14.0556 5.78571C14.0556 3.34286 16.1 1.28571 18.5278 1.28571C20.9556 1.28571 23 3.34286 23 5.78571Z" fill="white"/>
</svg>
