<svg width="24" height="32" viewBox="0 0 24 32" fill="none" xmlns="http://www.w3.org/2000/svg">
<path d="M12 22.0238C11.4033 22.0238 10.831 21.793 10.409 21.3822C9.98705 20.9714 9.75 20.4143 9.75 19.8333C9.75 18.6176 10.7512 17.6429 12 17.6429C12.5967 17.6429 13.169 17.8736 13.591 18.2844C14.0129 18.6952 14.25 19.2524 14.25 19.8333C14.25 20.4143 14.0129 20.9714 13.591 21.3822C13.169 21.793 12.5967 22.0238 12 22.0238ZM18.75 25.3095V14.3571H5.25V25.3095H18.75ZM18.75 12.1667C19.3467 12.1667 19.919 12.3974 20.341 12.8082C20.7629 13.219 21 13.7762 21 14.3571V25.3095C21 25.8905 20.7629 26.4476 20.341 26.8584C19.919 27.2692 19.3467 27.5 18.75 27.5H5.25C4.65326 27.5 4.08097 27.2692 3.65901 26.8584C3.23705 26.4476 3 25.8905 3 25.3095V14.3571C3 13.1414 4.00125 12.1667 5.25 12.1667H6.375V9.97619C6.375 8.52381 6.96763 7.13092 8.02252 6.10394C9.07742 5.07695 10.5082 4.5 12 4.5C12.7387 4.5 13.4701 4.64165 14.1526 4.91685C14.8351 5.19205 15.4551 5.59543 15.9775 6.10394C16.4998 6.61245 16.9141 7.21614 17.1968 7.88054C17.4795 8.54494 17.625 9.25705 17.625 9.97619V12.1667H18.75ZM12 6.69048C11.1049 6.69048 10.2464 7.03665 9.61351 7.65284C8.98058 8.26903 8.625 9.10476 8.625 9.97619V12.1667H15.375V9.97619C15.375 9.10476 15.0194 8.26903 14.3865 7.65284C13.7536 7.03665 12.8951 6.69048 12 6.69048Z" fill="white"/>
</svg>
