<svg width="42" height="43" viewBox="0 0 42 43" fill="none" xmlns="http://www.w3.org/2000/svg">
<path d="M10.4545 36.0551L11.6627 29.5453H12.353L13.5571 36.0551L12.0058 38.2001L10.4545 36.0551ZM33.5288 13.3866C33.5288 14.085 34.0918 14.6529 34.7821 14.6529H35.9246C35.9842 14.6529 36.0376 14.599 36.0376 14.5389V11.4572C36.0376 11.3971 35.9842 11.3432 35.9246 11.3432H33.5288V13.3866ZM35.8691 8.20145C35.3225 7.74552 34.7863 7.44914 34.2294 7.29582C34.0445 8.23254 33.7774 9.17552 33.4281 10.1164H34.7575L35.8691 8.20145ZM11.6276 28.3185H12.3858L12.6488 27.2823L12.0056 26.8637L11.3625 27.2823L11.6276 28.3185ZM26.2984 28.8014C25.0677 27.5807 24.1677 25.9705 23.7629 24.1509C22.6616 24.2814 21.5233 24.3478 20.3603 24.3478C19.6637 24.3478 18.9569 24.3229 18.2419 24.2773H17.6316L16.0392 28.6087C15.9755 28.7828 15.8358 28.9195 15.6612 28.9776C15.5995 28.9983 15.5338 29.0087 15.4701 29.0087C15.353 29.0087 15.24 28.9755 15.1393 28.9113L13.7256 27.989L13.4791 28.9506V28.9527L14.8002 36.0879C14.8311 36.2537 14.792 36.4257 14.6934 36.5605L12.4969 39.5966C12.3818 39.7541 12.201 39.8473 12.0058 39.8473C11.8127 39.8473 11.6298 39.7541 11.5147 39.5966L9.31825 36.5605C9.21963 36.4237 9.18059 36.2517 9.21141 36.0879L10.5346 28.9527V28.9506L10.2881 27.9828L8.87237 28.9071C8.77169 28.9714 8.65868 29.0045 8.54156 29.0045C8.47787 29.0045 8.41417 28.9942 8.35048 28.9734C8.17583 28.9154 8.0361 28.7807 7.97241 28.6045L6.51564 24.6462C2.75348 25.7674 0 29.2823 0 33.4352V42.5976H4.31898L4.32104 32.4218C4.32104 32.084 4.59431 31.8084 4.9292 31.8084C5.26412 31.8084 5.53737 32.0841 5.53737 32.4218V42.5997H18.4329L18.4309 29.4959C18.4309 29.1581 18.7021 28.8825 19.039 28.8825C19.374 28.8825 19.6472 29.1581 19.6472 29.4959V30.7829C22.1149 30.5218 24.3051 29.8707 26.2984 28.8014ZM9.08592 24.2752C8.6195 24.2752 8.1613 24.3105 7.71336 24.3809L8.84753 27.4647L10.2694 26.5363L10.405 26.4471L11.0728 26.0119L9.50294 24.2753L9.08592 24.2752ZM16.3348 24.2752H14.5081L12.9383 26.0119L15.1636 27.4647L16.3348 24.2752ZM13.6308 22.7085C13.1069 22.8266 12.5624 22.8888 12.0035 22.8888C11.4445 22.8888 10.9021 22.8266 10.3782 22.7085V23.4256L12.0035 25.2244L13.6308 23.4256V22.7085ZM19.4495 15.2645C20.5364 15.2583 21.42 14.365 21.42 13.2667C21.42 12.6222 21.1159 12.0481 20.6474 11.6833C20.635 11.673 20.6207 11.6626 20.6063 11.6522C20.6022 11.6502 20.6001 11.646 20.596 11.6439C20.2734 11.4098 19.8768 11.2688 19.4495 11.2668L19.4495 15.2645ZM4.563 15.2645C4.563 14.6054 4.56095 13.9464 4.55889 13.2853C4.55684 12.62 4.55273 11.9445 4.55273 11.2667C4.11918 11.2709 3.71854 11.416 3.39388 11.6605C3.38567 11.6667 3.37745 11.6729 3.36923 11.6792C2.89664 12.046 2.59253 12.62 2.59253 13.2666C2.59253 14.365 3.47606 15.2603 4.563 15.2645ZM18.2186 15.8095C18.2207 15.8074 18.2207 15.8074 18.2186 15.8054C18.2186 15.7784 18.2207 15.7515 18.2248 15.7266C18.231 15.6126 18.233 15.4986 18.233 15.3826V10.5766C17.7584 10.7673 17.2241 10.8626 16.3119 10.8626C14.9537 10.8626 13.0244 10.0502 11.8635 8.6928C10.8464 9.68343 9.32385 10.3549 7.97391 10.3549C7.03488 10.3549 6.36712 10.1994 5.77126 9.91967C5.7651 11.0429 5.76921 12.1765 5.77331 13.2791C5.77537 13.9795 5.77742 14.6821 5.77742 15.3825C5.77742 18.8455 8.57183 21.662 12.0053 21.662C15.297 21.662 18.0009 19.0734 18.2186 15.8095ZM4.56511 8.8419C4.56716 8.61393 4.69455 8.40669 4.89592 8.30308C5.09728 8.19946 5.33768 8.21604 5.5226 8.34867C6.27053 8.87922 6.82736 9.13207 7.97389 9.13207C8.94164 9.13207 10.3348 8.58498 11.1813 7.6482C10.7909 6.85446 10.5855 5.97785 10.5855 5.08256C10.5855 4.74475 10.8567 4.46915 11.1936 4.46915C11.5285 4.46915 11.8018 4.74478 11.8018 5.08256C11.8018 5.90118 12.0196 6.7032 12.4326 7.40161C12.4346 7.40368 12.4346 7.40575 12.4367 7.40782C13.2134 8.72176 15.1016 9.63774 16.3119 9.63774C17.5057 9.63774 17.8098 9.46366 18.4734 9.08025L18.5413 9.04087C18.7282 8.93311 18.9604 8.93518 19.1474 9.04502C19.3344 9.15485 19.4494 9.35588 19.4494 9.57348V10.0377C19.772 10.0398 20.0802 10.0874 20.374 10.1786V8.96836C20.374 6.37576 19.4741 4.20384 17.7748 2.69312C16.2585 1.34395 14.2099 0.599976 12.0051 0.599976C7.97575 0.599976 3.63842 3.21952 3.63842 8.9682V10.1785C3.93019 10.0873 4.23633 10.0396 4.55687 10.0375C4.55687 9.63964 4.561 9.23981 4.56511 8.8419ZM38.8276 32.4011V39.7581C38.8296 39.7768 38.8296 39.7954 38.8276 39.8141V40.7405H42V32.4009L38.8276 32.4011ZM33.4297 34.0694L29.238 37.576C28.9072 37.8516 28.7593 38.3013 28.8559 38.7262V38.7282C28.8579 38.7303 28.8579 38.7345 28.8579 38.7365C28.9483 39.1158 29.2278 39.4204 29.6059 39.5468C29.9901 39.6774 30.3867 39.6049 30.6948 39.3479L34.1488 36.461C34.4077 36.2454 34.7899 36.2807 35.0056 36.5418C35.2193 36.8009 35.1844 37.1884 34.9255 37.406L31.4715 40.2929C31.0421 40.6514 30.5181 40.8379 29.9798 40.8379C29.725 40.8379 29.4682 40.7965 29.2175 40.7115C28.5333 40.4794 28.0052 39.9633 27.7587 39.2981L23.148 36.9914C22.6507 36.7428 22.2809 36.8671 22.0569 37.0184C21.6973 37.2588 21.4652 37.7313 21.4939 38.1665C21.5104 38.4359 21.6357 38.809 22.135 39.0577L28.3708 42.1767C29.4968 42.7404 30.705 42.7404 31.8638 42.1808L37.6131 39.4079L37.611 33.6653H34.5413C34.1119 33.6653 33.7584 33.7938 33.4297 34.0694ZM29.6655 10.108C29.6716 10.1143 29.6757 10.1205 29.6799 10.1267C29.7148 10.1205 29.7518 10.1163 29.7908 10.1163H32.125C32.1558 10.0417 32.1846 9.96504 32.2133 9.89043C32.2339 9.83862 32.2544 9.78474 32.2729 9.73086C32.3161 9.61687 32.3572 9.50289 32.3982 9.38683C32.4147 9.33709 32.4332 9.28943 32.4496 9.23969C32.466 9.18995 32.4825 9.13814 32.501 9.0884C32.5133 9.05317 32.5256 9.01794 32.5359 8.98271C32.5606 8.9081 32.5852 8.83142 32.6078 8.75681C32.6325 8.68221 32.653 8.6076 32.6756 8.53092C32.6982 8.45632 32.7208 8.37963 32.7414 8.30503C32.7619 8.23042 32.7825 8.15996 32.801 8.08535C32.803 8.07706 32.8071 8.06877 32.8071 8.06255C32.8236 7.99831 32.84 7.93406 32.8564 7.87189C32.8955 7.71645 32.9325 7.56102 32.9653 7.40559C32.9715 7.37657 32.9777 7.34963 32.9838 7.32062C32.9941 7.27295 33.0044 7.22529 33.0126 7.17555C33.0229 7.12788 33.0331 7.08021 33.0414 7.03048C33.0475 6.99939 33.0537 6.97038 33.0578 6.93929C33.0681 6.88955 33.0763 6.84188 33.0845 6.79422C33.0886 6.78178 33.0907 6.76935 33.0907 6.75484C33.0989 6.71546 33.1051 6.67609 33.1112 6.63671C33.1174 6.59733 33.1236 6.55796 33.1318 6.51858C33.1338 6.49785 33.1379 6.47506 33.142 6.45434C33.1626 6.31963 33.1811 6.18492 33.1975 6.05021C33.2037 6.01291 33.2078 5.97768 33.2119 5.94037L33.2366 5.72277C31.5127 5.75593 30.0291 6.20979 28.7244 7.10095C28.6813 8.25737 28.971 9.21898 29.6059 10.0251C29.6244 10.0562 29.6449 10.0811 29.6655 10.108ZM28.7943 13.5794C29.0902 13.5794 29.3696 13.4985 29.5977 13.3597C29.6182 13.3473 29.6388 13.3348 29.6573 13.3203C30.0127 13.082 30.2429 12.6986 30.2429 12.2696C30.2429 11.9338 30.1175 11.6665 29.8689 11.4738C29.6244 11.2831 29.271 11.1753 28.8991 11.1753C28.3998 11.1753 27.5553 11.4074 27.5553 12.2716C27.5573 12.9224 27.9395 13.5794 28.7943 13.5794ZM32.314 13.2478V11.3432H31.2743C31.3914 11.6147 31.4592 11.9235 31.4592 12.2717C31.4592 12.6178 31.3853 12.9473 31.2517 13.2499L32.314 13.2478ZM24.7343 21.9518C24.7343 18.4971 28.0506 15.5689 30.2247 14.4723H32.5609C32.9616 15.3033 33.8061 15.8753 34.7821 15.8753H35.8608C37.0053 16.8307 39.2429 19.0689 39.2429 21.9516C39.2429 26.3783 35.9882 29.9802 31.9898 29.9802C27.9893 29.9823 24.7343 26.3807 24.7343 21.9518ZM33.5775 23.6077C33.5775 23.8046 33.5138 23.9911 33.4028 24.1196C33.2837 24.2564 33.109 24.3268 32.8851 24.3268H29.7927C29.4578 24.3268 29.1845 24.6004 29.1845 24.9402C29.1845 25.2801 29.4558 25.5537 29.7927 25.5537H31.381V26.4386C31.381 26.7764 31.6522 27.052 31.9892 27.052C32.3261 27.052 32.5973 26.7784 32.5973 26.4386V25.5537H32.885C33.4582 25.5537 33.9678 25.3319 34.3171 24.9278C34.6233 24.5755 34.7918 24.105 34.7918 23.6097C34.7918 22.6419 34.1363 21.6637 32.883 21.6637H31.0954C30.4338 21.6637 30.4009 21.0647 30.4009 20.9445C30.4009 20.7477 30.4646 20.5611 30.5755 20.4326C30.6947 20.2959 30.8694 20.2254 31.0954 20.2254H34.1857C34.5206 20.2254 34.7938 19.9518 34.7938 19.612C34.7938 19.2742 34.5206 18.9986 34.1857 18.9986H32.5953V18.1136C32.5953 17.7758 32.3241 17.5002 31.9872 17.5002C31.6502 17.5002 31.379 17.7738 31.379 18.1136V18.9986H31.0934C30.5181 18.9986 30.0106 19.2203 29.6592 19.6245C29.351 19.9768 29.1825 20.4472 29.1825 20.9446C29.1825 21.9124 29.838 22.8906 31.0934 22.8906H32.8809C33.5446 22.8886 33.5775 23.4875 33.5775 23.6077Z" fill="white"/>
</svg>
