<svg width="25" height="25" viewBox="0 0 25 25" fill="none" xmlns="http://www.w3.org/2000/svg">
<path d="M11.4872 17.5608H13.5115V11.488H11.4872V17.5608ZM12.4993 9.46379C12.7861 9.46379 13.0267 9.36662 13.221 9.17229C13.4153 8.97797 13.5121 8.73775 13.5115 8.45166C13.5108 8.16557 13.4136 7.92536 13.22 7.73103C13.0263 7.5367 12.7861 7.43954 12.4993 7.43954C12.2126 7.43954 11.9724 7.5367 11.7787 7.73103C11.5851 7.92536 11.4879 8.16557 11.4872 8.45166C11.4865 8.73775 11.5837 8.9783 11.7787 9.17331C11.9737 9.36831 12.2139 9.46514 12.4993 9.46379ZM12.4993 22.6214C10.1546 22.031 8.21873 20.6856 6.69177 18.5851C5.16481 16.4846 4.40167 14.1526 4.40234 11.5893V5.41528L12.4993 2.37891L20.5964 5.41528V11.5893C20.5964 14.1533 19.8332 16.4856 18.3069 18.5861C16.7806 20.6866 14.8448 22.0317 12.4993 22.6214ZM12.4993 20.496C14.2537 19.9393 15.7044 18.826 16.8515 17.1559C17.9986 15.4859 18.5721 13.6304 18.5721 11.5893V6.80696L12.4993 4.52967L6.4266 6.80696V11.5893C6.4266 13.6304 7.00013 15.4859 8.14721 17.1559C9.29429 18.826 10.745 19.9393 12.4993 20.496Z" fill="white"/>
</svg>
