<svg width="60" height="57" viewBox="0 0 60 57" fill="none" xmlns="http://www.w3.org/2000/svg">
<path d="M23.1302 24.7952C22.3693 24.0343 21.2601 23.7373 20.2207 24.0159C19.1812 24.2944 18.3696 25.1061 18.091 26.1455C17.8125 27.185 18.1095 28.2942 18.8703 29.055L24.8702 35.0549C25.4335 35.6226 26.2005 35.9425 27.0004 35.9425C27.8004 35.9425 28.5669 35.6226 29.1301 35.0549L41.13 23.055C41.8909 22.2941 42.1884 21.1849 41.9099 20.1455C41.6313 19.106 40.8191 18.2944 39.7797 18.0158C38.7402 17.7373 37.631 18.0343 36.8702 18.7951L27.0006 28.6949L23.1302 24.7952Z" fill="white"/>
<path d="M57.6595 5.92547L31.9502 0.225253C30.6673 -0.0750845 29.3326 -0.0750845 28.0503 0.225253L2.34096 5.92547C1.66381 6.07787 1.06092 6.46027 0.63448 7.00678C0.207981 7.55385 -0.0158729 8.23211 0.000876058 8.92548V20.265C-0.056622 28.8144 2.82719 37.1226 8.16957 43.7979C13.5114 50.4728 20.9862 55.1073 29.3401 56.9244H30.6604C39.0144 55.1073 46.489 50.4728 51.8309 43.7979C57.1728 37.123 60.0571 28.8139 59.9991 20.265V8.92548C60.0164 8.23214 59.7925 7.55388 59.3655 7.00678C58.939 6.46027 58.3362 6.07787 57.6595 5.92547ZM53.9992 20.265C54.0517 27.3357 51.7077 34.2153 47.3495 39.7821C42.9913 45.35 36.8758 49.2771 30.0003 50.924C23.124 49.2773 17.0084 45.35 12.6497 39.7821C8.29156 34.2148 5.94756 27.335 6.00001 20.265V11.265L29.3399 6.0751V6.07566C29.7754 5.98578 30.2247 5.98578 30.6602 6.07566L54.0001 11.3253L53.9992 20.265Z" fill="white"/>
</svg>
