<svg width="154" height="154" viewBox="0 0 154 154" fill="none" xmlns="http://www.w3.org/2000/svg">
<path opacity="0.4" d="M77 141.231C112.438 141.231 141.167 112.502 141.167 77.0641C141.167 41.6259 112.438 12.8975 77 12.8975C41.5618 12.8975 12.8334 41.6259 12.8334 77.0641C12.8334 112.502 41.5618 141.231 77 141.231Z" fill="#ACACAC"/>
<path d="M77 44.5316C63.7175 44.5316 52.9375 55.3116 52.9375 68.5941C52.9375 81.6199 63.14 92.2075 76.6792 92.5924C76.8717 92.5924 77.1283 92.5924 77.2567 92.5924C77.385 92.5924 77.5775 92.5924 77.7058 92.5924C77.77 92.5924 77.8342 92.5924 77.8342 92.5924C90.7958 92.1433 100.998 81.6199 101.062 68.5941C101.062 55.3116 90.2825 44.5316 77 44.5316Z" fill="#ACACAC"/>
<path d="M120.505 124.227C109.083 134.75 93.8118 141.231 77.0001 141.231C60.1884 141.231 44.9168 134.75 33.4951 124.227C35.0351 118.388 39.206 113.062 45.3018 108.955C62.8193 97.2767 91.3093 97.2767 108.698 108.955C114.858 113.062 118.965 118.388 120.505 124.227Z" fill="#ACACAC"/>
</svg>
