<svg width="20" height="21" viewBox="0 0 20 21" fill="none" xmlns="http://www.w3.org/2000/svg">
<path d="M7.65005 1.33331H12.3501L12.8892 4.03081C13.3356 4.23086 13.7601 4.47662 14.1559 4.76415L16.7634 3.88165L19.1134 7.95165L17.0459 9.76831C17.0958 10.2548 17.0958 10.7451 17.0459 11.2316L19.1126 13.0483L16.7634 17.1183L14.1559 16.2366C13.7601 16.5239 13.3356 16.7694 12.8892 16.9691L12.3492 19.6666H7.65005L7.11089 16.9691C6.66447 16.7691 6.23999 16.5233 5.84422 16.2358L3.23672 17.1183L0.886719 13.0483L2.95422 11.2316C2.90429 10.7451 2.90429 10.2548 2.95422 9.76831L0.887552 7.95165L3.23755 3.88165L5.84422 4.76331C6.24002 4.47607 6.66451 4.2306 7.11089 4.03081L7.65005 1.33331ZM9.01672 2.99998L8.56505 5.25415L8.12755 5.41498C7.54775 5.62905 7.00886 5.94077 6.53422 6.33665L6.17588 6.63581L3.99672 5.89831L3.01339 7.60165L4.74005 9.11915L4.66089 9.57831C4.55719 10.1884 4.55719 10.8116 4.66089 11.4216L4.74005 11.88L3.01255 13.3983L3.99589 15.1016L6.17588 14.3641L6.53422 14.6633C7.00886 15.0592 7.54775 15.3709 8.12755 15.585L8.56505 15.7458L9.01672 18H10.9834L11.4351 15.7458L11.8726 15.585C12.4524 15.3709 12.9912 15.0592 13.4659 14.6633L13.8242 14.3641L16.0042 15.1016L16.9876 13.3983L15.2609 11.8808L15.3392 11.4216C15.4429 10.8116 15.4429 10.1884 15.3392 9.57831L15.2609 9.11998L16.9876 7.60165L16.0042 5.89831L13.8242 6.63581L13.4659 6.33665C12.9912 5.94077 12.4524 5.62905 11.8726 5.41498L11.4351 5.25415L10.9834 2.99998H9.01672ZM10.0001 7.99998C9.33701 7.99998 8.70113 8.26337 8.23228 8.73221C7.76344 9.20105 7.50005 9.83694 7.50005 10.5C7.50005 11.163 7.76344 11.7989 8.23228 12.2677C8.70113 12.7366 9.33701 13 10.0001 13C10.6631 13 11.299 12.7366 11.7678 12.2677C12.2367 11.7989 12.5001 11.163 12.5001 10.5C12.5001 9.83694 12.2367 9.20105 11.7678 8.73221C11.299 8.26337 10.6631 7.99998 10.0001 7.99998ZM5.83339 10.5C5.83339 9.39491 6.27237 8.3351 7.05377 7.5537C7.83518 6.7723 8.89498 6.33331 10.0001 6.33331C11.1051 6.33331 12.1649 6.7723 12.9463 7.5537C13.7277 8.3351 14.1667 9.39491 14.1667 10.5C14.1667 11.605 13.7277 12.6649 12.9463 13.4463C12.1649 14.2277 11.1051 14.6666 10.0001 14.6666C8.89498 14.6666 7.83518 14.2277 7.05377 13.4463C6.27237 12.6649 5.83339 11.605 5.83339 10.5Z" fill="white"/>
</svg>
