<svg width="25" height="25" viewBox="0 0 25 25" fill="none" xmlns="http://www.w3.org/2000/svg">
<path fill-rule="evenodd" clip-rule="evenodd" d="M14.7353 1.1504C14.8397 1.3532 14.8661 1.6136 14.9177 2.1344C15.0161 3.1184 15.0653 3.6104 15.2717 3.8816C15.4003 4.04999 15.5712 4.18132 15.767 4.26226C15.9628 4.3432 16.1765 4.37085 16.3865 4.3424C16.7225 4.298 17.1065 3.9848 17.8721 3.3584C18.2765 3.026 18.4793 2.8604 18.6965 2.7908C18.9731 2.7024 19.2724 2.71733 19.5389 2.8328C19.7489 2.924 19.9349 3.1088 20.3033 3.4784L21.3761 4.5512C21.7457 4.9208 21.9305 5.1056 22.0217 5.3156C22.1372 5.58207 22.1521 5.88137 22.0637 6.158C21.9941 6.3752 21.8285 6.578 21.4973 6.9824C20.8697 7.7492 20.5565 8.132 20.5109 8.4692C20.4828 8.67908 20.5107 8.89265 20.5919 9.08823C20.673 9.28382 20.8045 9.45445 20.9729 9.5828C21.2429 9.7892 21.7361 9.8384 22.7213 9.9368C23.2409 9.9884 23.5013 10.0148 23.7053 10.1192C23.9626 10.2526 24.163 10.4747 24.2693 10.7444C24.3545 10.9568 24.3545 11.2184 24.3545 11.7416V13.2584C24.3545 13.7816 24.3545 14.0432 24.2705 14.2544C24.1638 14.5249 23.9626 14.7475 23.7041 14.8808C23.5013 14.9852 23.2409 15.0116 22.7201 15.0632C21.7361 15.1616 21.2441 15.2108 20.9729 15.4172C20.8045 15.5458 20.6732 15.7167 20.5922 15.9125C20.5113 16.1083 20.4836 16.322 20.5121 16.532C20.5577 16.868 20.8709 17.252 21.4973 18.0176C21.8285 18.422 21.9941 18.6236 22.0637 18.842C22.1521 19.1186 22.1372 19.4179 22.0217 19.6844C21.9305 19.8944 21.7457 20.0792 21.3761 20.4488L20.3033 21.5204C19.9337 21.8912 19.7489 22.076 19.5389 22.166C19.2724 22.2815 18.9731 22.2964 18.6965 22.208C18.4793 22.1384 18.2765 21.9728 17.8721 21.6416C17.1053 21.0152 16.7225 20.702 16.3865 20.6576C16.1765 20.6292 15.9628 20.6568 15.767 20.7377C15.5712 20.8187 15.4003 20.95 15.2717 21.1184C15.0653 21.3884 15.0161 21.8804 14.9177 22.8656C14.8661 23.3864 14.8397 23.6468 14.7353 23.8496C14.6023 24.1078 14.3802 24.3091 14.1101 24.416C13.8977 24.5 13.6361 24.5 13.1129 24.5H11.5961C11.0729 24.5 10.8113 24.5 10.6001 24.416C10.3296 24.3093 10.107 24.1081 9.97369 23.8496C9.86929 23.6468 9.84289 23.3864 9.79129 22.8656C9.69289 21.8816 9.64369 21.3896 9.43729 21.1184C9.3088 20.9502 9.13811 20.819 8.94254 20.7381C8.74696 20.6571 8.53346 20.6294 8.32369 20.6576C7.98649 20.702 7.60369 21.0152 6.83689 21.6416C6.43249 21.974 6.22969 22.1396 6.01249 22.2092C5.73586 22.2976 5.43656 22.2827 5.17009 22.1672C4.96009 22.076 4.77409 21.8912 4.40569 21.5216L3.33289 20.4488C2.96329 20.0792 2.77849 19.8944 2.68729 19.6844C2.57182 19.4179 2.5569 19.1186 2.64529 18.842C2.71489 18.6248 2.88049 18.422 3.21169 18.0176C3.83929 17.2508 4.15249 16.868 4.19689 16.5308C4.22512 16.321 4.19736 16.1075 4.11643 15.912C4.0355 15.7164 3.90429 15.5457 3.73609 15.4172C3.46609 15.2108 2.97289 15.1616 1.98769 15.0632C1.46809 15.0116 1.20769 14.9852 1.00369 14.8808C0.746349 14.7474 0.546007 14.5253 0.439692 14.2556C0.354492 14.0432 0.354492 13.7816 0.354492 13.2584V11.7416C0.354492 11.2184 0.354492 10.9568 0.438492 10.7456C0.545157 10.4751 0.74643 10.2525 1.00489 10.1192C1.20769 10.0148 1.46809 9.9884 1.98889 9.9368C2.97289 9.8384 3.46609 9.7892 3.73609 9.5828C3.9045 9.45445 4.03595 9.28382 4.1171 9.08823C4.19824 8.89265 4.22618 8.67908 4.19809 8.4692C4.15249 8.132 3.83809 7.7492 3.21169 6.9812C2.88049 6.5768 2.71489 6.3752 2.64529 6.1568C2.5569 5.88017 2.57182 5.58087 2.68729 5.3144C2.77849 5.1056 2.96329 4.9196 3.33289 4.55L4.40569 3.4784C4.77529 3.1088 4.96009 2.9228 5.17009 2.8328C5.43656 2.71733 5.73586 2.7024 6.01249 2.7908C6.22969 2.8604 6.43249 3.026 6.83689 3.3572C7.60369 3.9836 7.98649 4.2968 8.32249 4.3424C8.53275 4.37093 8.74681 4.34321 8.94286 4.26205C9.1389 4.18089 9.30993 4.0492 9.43849 3.8804C9.64249 3.6104 9.69289 3.1184 9.79129 2.1332C9.84289 1.6136 9.86929 1.3532 9.97369 1.1492C10.1069 0.891406 10.329 0.690612 10.5989 0.584C10.8113 0.5 11.0729 0.5 11.5961 0.5H13.1129C13.6361 0.5 13.8977 0.5 14.1089 0.584C14.3794 0.690664 14.602 0.891938 14.7353 1.1504ZM12.3545 17.3C13.6275 17.3 14.8484 16.7943 15.7486 15.8941C16.6488 14.9939 17.1545 13.773 17.1545 12.5C17.1545 11.227 16.6488 10.0061 15.7486 9.10589C14.8484 8.20571 13.6275 7.7 12.3545 7.7C11.0815 7.7 9.86055 8.20571 8.96038 9.10589C8.0602 10.0061 7.55449 11.227 7.55449 12.5C7.55449 13.773 8.0602 14.9939 8.96038 15.8941C9.86055 16.7943 11.0815 17.3 12.3545 17.3Z" fill="#E6E6E6"/>
</svg>
