<svg width="21" height="27" viewBox="0 0 21 27" fill="none" xmlns="http://www.w3.org/2000/svg">
<g clip-path="url(#clip0_1295_2609)">
<path d="M13.4022 23.8403L17.8693 19.0627H13.4022V23.8403ZM5.04827 10.2204V6.0013H3.68194V4.70215H7.82876V6.0013H6.46451V10.2331L5.04827 10.2204ZM15.1533 10.2648C14.8721 10.269 14.5918 10.2313 14.3214 10.1527C14.0802 10.0782 13.8641 9.93679 13.6975 9.7443C13.4998 9.4985 13.3622 9.20842 13.2962 8.89795C13.1941 8.42206 13.1481 7.93552 13.1589 7.44857C13.1478 6.97374 13.1967 6.49942 13.3045 6.03727C13.3765 5.72607 13.5189 5.43627 13.7204 5.19092C13.8865 4.99459 14.1023 4.84825 14.3443 4.76774C14.6047 4.68883 14.8753 4.65031 15.147 4.65348C15.414 4.65059 15.6809 4.66686 15.9456 4.70215C16.1447 4.7276 16.3419 4.76576 16.5363 4.81641C16.6698 4.85044 16.8005 4.89501 16.9272 4.94971V6.07113C16.8357 6.05208 16.7193 6.03093 16.5695 6.01188C16.4198 5.99284 16.2576 5.97591 16.0704 5.96322C15.8832 5.95052 15.6794 5.94417 15.4611 5.94417C15.3207 5.94207 15.1807 5.95988 15.0451 5.99707C14.9314 6.03138 14.8339 6.10658 14.7706 6.20866C14.6905 6.34896 14.6395 6.50452 14.6209 6.66569C14.5853 6.92999 14.5693 7.19664 14.5731 7.46338C14.5704 7.71149 14.5829 7.95953 14.6105 8.20606C14.6248 8.36826 14.6693 8.52622 14.7415 8.67155C14.8031 8.78069 14.9002 8.86452 15.016 8.90853C15.1652 8.96008 15.3223 8.98373 15.4798 8.97835C15.8479 8.97835 16.1494 8.97835 16.3803 8.95931C16.6111 8.94027 16.7962 8.9318 16.9314 8.91276V10.0215C16.7965 10.075 16.6573 10.1167 16.5155 10.1463C16.3259 10.1851 16.1342 10.2126 15.9415 10.2288C15.7335 10.2479 15.4632 10.2585 15.1616 10.2585L15.1533 10.2648ZM9.93128 10.305C9.59243 10.3124 9.25648 10.24 8.94969 10.0934C8.69571 9.9723 8.47974 9.78186 8.3258 9.5433C8.17985 9.31718 8.10313 9.05208 8.10535 8.78158C8.10137 8.59577 8.14056 8.41163 8.21973 8.24414C8.29946 8.08447 8.40731 7.94104 8.53792 7.82096C8.68633 7.67902 8.84634 7.55019 9.01624 7.43587L10.2204 6.67627C10.3212 6.6187 10.4057 6.53561 10.4658 6.43506C10.5015 6.36656 10.5207 6.29042 10.5219 6.21289C10.5214 6.12759 10.4886 6.04577 10.4304 5.98438C10.3913 5.94829 10.3452 5.92097 10.295 5.9042C10.2448 5.88743 10.1918 5.88159 10.1393 5.88705C10.0675 5.88543 9.99634 5.90064 9.93128 5.93148C9.87512 5.96061 9.82824 6.00537 9.79611 6.06055C9.76161 6.11929 9.7443 6.18681 9.7462 6.25521C9.74797 6.36718 9.77882 6.47668 9.83562 6.57259C10.3139 7.46973 12.2376 9.38672 12.9905 10.2204H11.5597L9.40305 7.9056C9.29699 7.79134 9.18053 7.65169 9.05159 7.48242C8.91981 7.30922 8.80945 7.1202 8.72301 6.9196C8.62852 6.70472 8.58098 6.47155 8.58367 6.23617C8.58134 5.97274 8.6481 5.71345 8.77708 5.48503C8.90901 5.25909 9.09688 5.07232 9.32195 4.94336C9.57172 4.80186 9.85338 4.72894 10.1393 4.73177C10.4069 4.7249 10.6715 4.78985 10.9066 4.92009C11.1137 5.0375 11.286 5.20919 11.4058 5.41732C11.5244 5.62705 11.5862 5.86511 11.5846 6.1071C11.5859 6.35362 11.5227 6.59607 11.4016 6.80957C11.2701 7.0366 11.092 7.23216 10.8796 7.38298C10.5656 7.60726 9.77323 8.10661 9.56111 8.37956C9.49646 8.46546 9.46402 8.57198 9.4696 8.68001C9.46697 8.77268 9.49159 8.86404 9.54031 8.94238C9.59146 9.0177 9.66403 9.07529 9.74828 9.10742C9.84379 9.14762 9.9465 9.16707 10.0498 9.16455C10.2336 9.1636 10.4145 9.11866 10.5781 9.03337C10.7616 8.9438 10.9267 8.81958 11.0647 8.66732C11.3843 8.32531 11.5597 7.86966 11.5534 7.39779H12.6827C12.684 7.70163 12.6519 8.00468 12.587 8.30127C12.5269 8.58218 12.423 8.85148 12.2792 9.09896C12.1363 9.33933 11.9458 9.54685 11.7198 9.70833L11.5118 9.81201L11.3039 9.91781C11.0999 10.0533 10.8749 10.1528 10.6384 10.2119C10.4152 10.2683 10.1862 10.2975 9.95624 10.2987L9.93128 10.305ZM4.29127 19.543H8.29044V20.7131H4.29127V19.543ZM4.29127 16.5807H9.96664V17.7508H4.29127V16.5807ZM4.29127 13.6185H16.4156V14.7886H4.29127V13.6058V13.6185ZM20.3545 18.4533C20.3547 18.6185 20.3017 18.7793 20.2037 18.9111C20.1057 19.0429 19.9681 19.1385 19.8117 19.1833L13.2338 26.2207C13.1646 26.3079 13.0772 26.3782 12.9779 26.4265C12.8786 26.4748 12.7699 26.4999 12.6598 26.5H1.69171C1.51603 26.5003 1.34202 26.4653 1.17966 26.397C1.01729 26.3287 0.869771 26.2285 0.745544 26.1021C0.621318 25.9757 0.52283 25.8257 0.455725 25.6605C0.388621 25.4953 0.35422 25.3182 0.354494 25.1395V1.86052C0.35422 1.68177 0.388621 1.50473 0.455725 1.33954C0.52283 1.17435 0.621318 1.02426 0.745544 0.897866C0.869771 0.771475 1.01729 0.671271 1.17966 0.602997C1.34202 0.534724 1.51603 0.499723 1.69171 0.500002H19.0173C19.3718 0.500561 19.7116 0.64408 19.9622 0.899105C20.2129 1.15413 20.3539 1.49986 20.3545 1.86052V18.4533ZM18.8634 17.5435V2.01921H1.84768V24.9871H11.909V18.3073C11.909 18.1047 11.9881 17.9104 12.1289 17.7672C12.2697 17.6239 12.4607 17.5435 12.6598 17.5435H18.8634Z" fill="white"/>
</g>
<defs>
<clipPath id="clip0_1295_2609">
<rect width="20" height="26" fill="white" transform="translate(0.354492 0.5)"/>
</clipPath>
</defs>
</svg>
