<svg width="24" height="24" viewBox="0 0 24 24" fill="none" xmlns="http://www.w3.org/2000/svg">
<path d="M11.7 15.875C12.7277 15.875 13.7133 15.4667 14.44 14.74C15.1667 14.0133 15.575 13.0277 15.575 12C15.575 10.9723 15.1667 9.98666 14.44 9.25996C13.7133 8.53326 12.7277 8.125 11.7 8.125C10.6722 8.125 9.68662 8.53326 8.95991 9.25996C8.23321 9.98666 7.82495 10.9723 7.82495 12C7.82495 13.0277 8.23321 14.0133 8.95991 14.74C9.68662 15.4667 10.6722 15.875 11.7 15.875Z" fill="#676D75"/>
<path fill-rule="evenodd" clip-rule="evenodd" d="M11.7 0.375C12.0425 0.375 12.3711 0.511086 12.6133 0.75332C12.8555 0.995555 12.9916 1.3241 12.9916 1.66667V3.04875C14.9242 3.32725 16.7147 4.22388 18.0954 5.60455C19.4761 6.98522 20.3727 8.77573 20.6512 10.7083H22.0333C22.3759 10.7083 22.7044 10.8444 22.9466 11.0867C23.1889 11.3289 23.325 11.6574 23.325 12C23.325 12.3426 23.1889 12.6711 22.9466 12.9133C22.7044 13.1556 22.3759 13.2917 22.0333 13.2917H20.6512C20.3727 15.2243 19.4761 17.0148 18.0954 18.3955C16.7147 19.7761 14.9242 20.6728 12.9916 20.9513V22.3333C12.9916 22.6759 12.8555 23.0044 12.6133 23.2467C12.3711 23.4889 12.0425 23.625 11.7 23.625C11.3574 23.625 11.0288 23.4889 10.7866 23.2467C10.5444 23.0044 10.4083 22.6759 10.4083 22.3333V20.9513C8.47569 20.6728 6.68517 19.7761 5.3045 18.3955C3.92383 17.0148 3.0272 15.2243 2.7487 13.2917H1.36662C1.02405 13.2917 0.695506 13.1556 0.453272 12.9133C0.211037 12.6711 0.0749512 12.3426 0.0749512 12C0.0749512 11.6574 0.211037 11.3289 0.453272 11.0867C0.695506 10.8444 1.02405 10.7083 1.36662 10.7083H2.7487C3.0282 8.77614 3.92515 6.98617 5.30563 5.60568C6.68612 4.2252 8.47609 3.32824 10.4083 3.04875V1.66667C10.4083 1.3241 10.5444 0.995555 10.7866 0.75332C11.0288 0.511086 11.3574 0.375 11.7 0.375ZM5.24162 12C5.24162 10.2871 5.92205 8.64444 7.13322 7.43327C8.34439 6.2221 9.98709 5.54167 11.7 5.54167C13.4128 5.54167 15.0555 6.2221 16.2667 7.43327C17.4779 8.64444 18.1583 10.2871 18.1583 12C18.1583 13.7129 17.4779 15.3556 16.2667 16.5667C15.0555 17.7779 13.4128 18.4583 11.7 18.4583C9.98709 18.4583 8.34439 17.7779 7.13322 16.5667C5.92205 15.3556 5.24162 13.7129 5.24162 12Z" fill="#676D75"/>
</svg>
