<svg width="25" height="25" viewBox="0 0 25 25" fill="none" xmlns="http://www.w3.org/2000/svg">
<g clip-path="url(#clip0_219_1081)">
<path d="M18.8545 10.5L23.2545 21.5H21.0995L19.8985 18.5H15.8085L14.6095 21.5H12.4555L16.8545 10.5H18.8545ZM10.3545 2.5V4.5H16.3545V6.5H14.3865C13.6151 8.82208 12.384 10.965 10.7665 12.801C11.4878 13.4446 12.2702 14.0163 13.1025 14.508L12.3515 16.386C11.277 15.7766 10.2721 15.052 9.35449 14.225C7.56808 15.8417 5.45253 17.0522 3.15349 17.773L2.61749 15.844C4.58733 15.2159 6.40251 14.1793 7.94449 12.802C6.80318 11.5099 5.85256 10.0613 5.12149 8.5H7.36149C7.91884 9.52886 8.58716 10.4936 9.35449 11.377C10.6046 9.9361 11.5898 8.2853 12.2645 6.501L2.35449 6.5V4.5H8.35449V2.5H10.3545ZM17.8545 13.385L16.6075 16.5H19.0995L17.8545 13.385Z" fill="white"/>
</g>
<defs>
<clipPath id="clip0_219_1081">
<rect width="24" height="24" fill="white" transform="translate(0.354492 0.5)"/>
</clipPath>
</defs>
</svg>
