<svg width="36" height="37" viewBox="0 0 36 37" fill="none" xmlns="http://www.w3.org/2000/svg">
<path d="M17.9854 4.25C19.3661 4.25015 20.5559 4.96118 21.2021 6.10449L21.3184 6.30957L21.5322 6.41211C24.2674 7.71804 26.1602 10.5069 26.1602 13.7305V17.5254C26.1602 17.9257 26.249 18.4134 26.3682 18.8535C26.4878 19.2955 26.6573 19.7627 26.8574 20.1152L26.8623 20.124L26.8672 20.1318L28.3672 22.6221L28.3691 22.625C28.8345 23.3887 28.9165 24.2876 28.6084 25.1055C28.2959 25.9347 27.6534 26.5601 26.8262 26.832L26.8213 26.834C23.9911 27.7822 21.012 28.25 18.0303 28.25C15.0483 28.25 12.0696 27.7825 9.24121 26.8203L9.24023 26.8193L9.06934 26.7568C8.23317 26.4271 7.63565 25.8284 7.38086 25.1172L7.37891 25.1113L7.3291 24.9629C7.10385 24.2189 7.2123 23.4029 7.67676 22.623L9.19141 20.1182L9.19727 20.1074C9.4007 19.7586 9.57188 19.2921 9.69141 18.8525C9.81077 18.4135 9.90033 17.9257 9.90039 17.5254V13.7305C9.90039 10.5491 11.7508 7.78575 14.4336 6.45117L14.6416 6.34863L14.7549 6.14648C15.4042 4.98521 16.6258 4.25 17.9854 4.25Z" fill="#F2F2F2" stroke="#F2F2F2" stroke-width="1.5"/>
<path d="M15.3701 31.4414V31.4424C16.2428 31.5189 17.1349 31.5654 18.0303 31.5654C18.9113 31.5654 19.7893 31.519 20.6475 31.4424L20.6514 31.4414C20.7147 31.4354 20.785 31.4298 20.8594 31.4238C20.1677 32.2347 19.1429 32.7499 18.001 32.75C17.0127 32.75 16.0392 32.348 15.3604 31.6445L15.3477 31.6309L15.333 31.6182L15.1953 31.4785C15.1775 31.4593 15.1609 31.4388 15.1436 31.4189C15.2188 31.4264 15.2943 31.4351 15.3701 31.4414Z" fill="#F2F2F2" stroke="#F2F2F2" stroke-width="1.5"/>
<circle cx="26" cy="8.5" r="5" fill="#D7AA47" stroke="black" stroke-width="2"/>
</svg>
