<svg width="39" height="39" viewBox="0 0 39 39" fill="none" xmlns="http://www.w3.org/2000/svg">
<path fill-rule="evenodd" clip-rule="evenodd" d="M13.7481 11.8364C15.2799 9.46953 17.9444 7.90045 20.9773 7.90045C25.5496 7.90045 29.289 11.4665 29.5659 15.9691C29.6572 15.9656 29.7489 15.9639 29.8409 15.9639C33.7775 15.9639 36.9688 19.1551 36.9688 23.0917C36.9688 27.0283 33.7775 30.2196 29.8409 30.2196L11.375 30.2196C6.21459 30.2196 2.03125 26.0362 2.03125 20.8758C2.03125 15.7154 6.21459 11.5321 11.375 11.5321C12.1939 11.5321 12.9894 11.6377 13.7481 11.8364ZM24.5141 20.2614C24.0937 20.787 23.3267 20.8723 22.8011 20.4518L20.7187 18.7859V24.3751C20.7187 25.0482 20.1731 25.5939 19.5 25.5939C18.8269 25.5939 18.2812 25.0482 18.2812 24.3751V18.7858L16.1988 20.4518C15.6732 20.8723 14.9062 20.787 14.4858 20.2614C14.0653 19.7358 14.1505 18.9689 14.6761 18.5484L18.7342 15.3019C18.941 15.1347 19.2036 15.0338 19.4897 15.0314L19.5 15.0313L19.5039 15.0314C19.795 15.0323 20.062 15.1352 20.2711 15.3063L24.3238 18.5484C24.8494 18.9689 24.9346 19.7358 24.5141 20.2614Z" fill="white"/>
</svg>
