<svg width="25" height="24" viewBox="0 0 25 24" fill="none" xmlns="http://www.w3.org/2000/svg">
<path fill-rule="evenodd" clip-rule="evenodd" d="M4.56432 15.4645C5.502 14.5268 6.77377 14 8.09985 14H16.0999C17.4259 14 18.6977 14.5268 19.6354 15.4645C20.5731 16.4021 21.0999 17.6739 21.0999 19V21C21.0999 21.5523 20.6521 22 20.0999 22C19.5476 22 19.0999 21.5523 19.0999 21V19C19.0999 18.2044 18.7838 17.4413 18.2212 16.8787C17.6586 16.3161 16.8955 16 16.0999 16H8.09985C7.3042 16 6.54114 16.3161 5.97853 16.8787C5.41592 17.4413 5.09985 18.2044 5.09985 19V21C5.09985 21.5523 4.65214 22 4.09985 22C3.54757 22 3.09985 21.5523 3.09985 21V19C3.09985 17.6739 3.62664 16.4021 4.56432 15.4645Z" fill="#676D75"/>
<path fill-rule="evenodd" clip-rule="evenodd" d="M12.0999 4C10.443 4 9.09985 5.34315 9.09985 7C9.09985 8.65685 10.443 10 12.0999 10C13.7567 10 15.0999 8.65685 15.0999 7C15.0999 5.34315 13.7567 4 12.0999 4ZM7.09985 7C7.09985 4.23858 9.33843 2 12.0999 2C14.8613 2 17.0999 4.23858 17.0999 7C17.0999 9.76142 14.8613 12 12.0999 12C9.33843 12 7.09985 9.76142 7.09985 7Z" fill="#676D75"/>
</svg>
